<svg xmlns="http://www.w3.org/2000/svg" xmlns:xlink="http://www.w3.org/1999/xlink" width="1080" zoomAndPan="magnify" viewBox="0 0 810 1261.499967" height="1682" preserveAspectRatio="xMidYMid meet" version="1.0"><defs><clipPath id="3d9c58e68e"><path d="M 0.164062 377 L 212 377 L 212 884 L 0.164062 884 Z M 0.164062 377 " clip-rule="nonzero"/></clipPath><clipPath id="4ff37896f7"><path d="M 489 0 L 809.839844 0 L 809.839844 1260.996094 L 489 1260.996094 Z M 489 0 " clip-rule="nonzero"/></clipPath></defs><g clip-path="url(#3d9c58e68e)"><path fill="#8bb9ef" d="M 159.03125 429.78125 L 159.03125 831.203125 C 157.59375 829.761719 156.152344 828.324219 154.714844 826.882812 L 154.714844 434.097656 C 156.152344 432.660156 157.59375 431.21875 159.03125 429.78125 Z M 128.988281 459.824219 L 128.988281 801.160156 C 130.328125 802.5 131.667969 803.839844 133.007812 805.179688 L 133.007812 455.800781 C 131.667969 457.140625 130.328125 458.480469 128.988281 459.824219 Z M 206.167969 382.648438 L 206.167969 878.335938 C 207.808594 879.976562 209.445312 881.613281 211.082031 883.25 L 211.082031 377.734375 C 209.445312 379.371094 207.808594 381.007812 206.167969 382.648438 Z M 103.257812 485.546875 L 103.257812 775.433594 C 104.503906 776.675781 105.746094 777.917969 106.988281 779.160156 L 106.988281 481.820312 C 105.746094 483.0625 104.503906 484.304688 103.257812 485.546875 Z M 77.53125 511.273438 L 77.53125 749.707031 C 78.675781 750.851562 79.820312 751.996094 80.964844 753.140625 L 80.964844 507.839844 C 79.820312 508.984375 78.675781 510.128906 77.53125 511.273438 Z M 0.351562 588.445312 L 0.351562 672.53125 C 1.199219 673.378906 2.046875 674.226562 2.894531 675.070312 L 2.894531 585.90625 C 2.046875 586.75 1.199219 587.597656 0.351562 588.445312 Z M 26.078125 562.722656 L 26.078125 698.253906 C 27.027344 699.203125 27.972656 700.148438 28.917969 701.09375 L 28.917969 559.882812 C 27.972656 560.828125 27.027344 561.777344 26.078125 562.722656 Z M 51.804688 537 L 51.804688 723.980469 C 52.851562 725.023438 53.898438 726.070312 54.941406 727.117188 L 54.941406 533.859375 C 53.898438 534.90625 52.851562 535.953125 51.804688 537 Z M 180.441406 408.371094 L 180.441406 852.613281 C 181.980469 854.152344 183.519531 855.691406 185.058594 857.230469 L 185.058594 403.753906 C 183.519531 405.292969 181.980469 406.832031 180.441406 408.371094 Z M 180.441406 408.371094 " fill-opacity="1" fill-rule="nonzero"/></g><g clip-path="url(#4ff37896f7)"><path fill="#4a81e5" d="M 617.804688 416.859375 L 617.804688 24.273438 C 621.015625 27.488281 624.234375 30.703125 627.445312 33.917969 L 627.445312 407.214844 C 624.234375 410.429688 621.019531 413.644531 617.804688 416.859375 Z M 783.589844 251.097656 L 783.589844 190.035156 C 779.78125 186.226562 775.972656 182.417969 772.164062 178.613281 L 772.164062 262.519531 C 775.972656 258.714844 779.78125 254.90625 783.589844 251.097656 Z M 783.589844 1070.964844 L 783.589844 1009.898438 C 779.78125 1006.09375 775.972656 1002.285156 772.164062 998.476562 L 772.164062 1082.386719 C 775.972656 1078.578125 779.78125 1074.769531 783.589844 1070.964844 Z M 757.5625 1096.984375 L 757.5625 983.878906 C 753.855469 980.171875 750.148438 976.464844 746.441406 972.757812 L 746.441406 1108.105469 C 750.148438 1104.402344 753.855469 1100.691406 757.5625 1096.984375 Z M 679.496094 1175.042969 L 679.496094 905.820312 C 676.082031 902.410156 672.667969 898.996094 669.253906 895.585938 L 669.253906 1185.277344 C 672.667969 1181.867188 676.082031 1178.453125 679.496094 1175.042969 Z M 592.078125 442.582031 C 595.191406 439.464844 598.308594 436.351562 601.425781 433.234375 L 601.425781 7.898438 C 600.574219 7.046875 599.71875 6.195312 598.867188 5.34375 C 596.800781 3.273438 594.632812 1.40625 592.078125 0 Z M 653.472656 1201.0625 L 653.472656 879.804688 C 650.15625 876.488281 646.84375 873.175781 643.527344 869.859375 L 643.527344 1211.003906 C 646.84375 1207.6875 650.15625 1204.375 653.472656 1201.0625 Z M 679.496094 355.175781 L 679.496094 85.957031 C 676.082031 82.542969 672.667969 79.132812 669.253906 75.71875 L 669.253906 365.414062 C 672.667969 362.003906 676.082031 358.589844 679.496094 355.175781 Z M 653.472656 381.195312 L 653.472656 59.9375 C 650.15625 56.621094 646.84375 53.308594 643.527344 49.996094 L 643.527344 391.136719 C 646.84375 387.824219 650.15625 384.511719 653.472656 381.195312 Z M 731.542969 303.136719 L 731.542969 137.996094 C 727.929688 134.386719 724.324219 130.777344 720.714844 127.167969 L 720.714844 313.964844 C 724.324219 310.355469 727.929688 306.746094 731.542969 303.136719 Z M 757.5625 277.121094 L 757.5625 164.011719 C 753.855469 160.304688 750.148438 156.597656 746.441406 152.890625 L 746.441406 288.242188 C 750.148438 284.535156 753.855469 280.828125 757.5625 277.121094 Z M 705.519531 329.15625 L 705.519531 111.976562 C 702.007812 108.464844 698.496094 104.957031 694.984375 101.445312 L 694.984375 339.6875 C 698.496094 336.175781 702.007812 332.667969 705.519531 329.15625 Z M 705.519531 1149.023438 L 705.519531 931.84375 C 702.007812 928.332031 698.496094 924.820312 694.984375 921.3125 L 694.984375 1159.554688 C 698.496094 1156.042969 702.007812 1152.53125 705.519531 1149.023438 Z M 598.867188 1255.65625 C 599.71875 1254.804688 600.574219 1253.953125 601.425781 1253.097656 L 601.425781 827.761719 C 598.308594 824.648438 595.191406 821.53125 592.078125 818.417969 L 592.078125 1260.996094 C 594.632812 1259.59375 596.800781 1257.722656 598.867188 1255.65625 Z M 804.613281 230.074219 C 806.335938 228.355469 808.09375 226.664062 809.609375 224.773438 L 809.609375 216.40625 C 808.644531 215.179688 807.582031 214.023438 806.457031 212.898438 C 803.601562 210.046875 800.75 207.1875 797.890625 204.335938 L 797.890625 236.796875 C 800.132812 234.558594 802.375 232.316406 804.613281 230.074219 Z M 806.457031 1048.097656 C 807.582031 1046.976562 808.644531 1045.816406 809.609375 1044.589844 L 809.609375 1036.226562 C 808.09375 1034.335938 806.335938 1032.644531 804.613281 1030.921875 C 802.375 1028.679688 800.132812 1026.441406 797.890625 1024.203125 L 797.890625 1056.664062 C 800.75 1053.808594 803.601562 1050.953125 806.457031 1048.097656 Z M 549.378906 1221.535156 L 549.378906 775.726562 C 546.460938 772.808594 543.539062 769.890625 540.621094 766.96875 L 540.621094 1212.777344 C 543.539062 1215.699219 546.460938 1218.617188 549.378906 1221.535156 Z M 575.402344 1247.558594 L 575.402344 801.746094 C 572.382812 798.726562 569.367188 795.710938 566.347656 792.695312 L 566.347656 1238.503906 C 569.367188 1241.523438 572.386719 1244.539062 575.402344 1247.558594 Z M 627.445312 1227.082031 L 627.445312 853.78125 C 624.234375 850.570312 621.019531 847.355469 617.804688 844.140625 L 617.804688 1236.722656 C 621.015625 1233.507812 624.234375 1230.296875 627.445312 1227.082031 Z M 523.359375 1195.515625 L 523.359375 749.710938 C 520.535156 746.886719 517.714844 744.066406 514.894531 741.246094 L 514.894531 1187.050781 C 517.714844 1189.871094 520.535156 1192.695312 523.359375 1195.515625 Z M 497.335938 1169.492188 L 497.335938 723.691406 C 494.613281 720.96875 491.890625 718.246094 489.167969 715.523438 L 489.167969 1161.324219 C 491.890625 1164.046875 494.613281 1166.769531 497.335938 1169.492188 Z M 731.542969 1123.003906 L 731.542969 957.859375 C 727.929688 954.253906 724.324219 950.644531 720.714844 947.035156 L 720.714844 1133.832031 C 724.324219 1130.222656 727.929688 1126.613281 731.542969 1123.003906 Z M 566.347656 22.496094 L 566.347656 468.304688 C 569.367188 465.289062 572.386719 462.269531 575.402344 459.253906 L 575.402344 13.441406 C 572.386719 16.460938 569.367188 19.476562 566.347656 22.496094 Z M 489.167969 99.671875 L 489.167969 545.476562 C 491.890625 542.753906 494.613281 540.03125 497.335938 537.308594 L 497.335938 91.503906 C 494.613281 94.226562 491.890625 96.949219 489.167969 99.671875 Z M 540.621094 48.21875 L 540.621094 494.027344 C 543.539062 491.109375 546.460938 488.191406 549.378906 485.273438 L 549.378906 39.460938 C 546.460938 42.382812 543.539062 45.300781 540.621094 48.21875 Z M 514.894531 73.945312 L 514.894531 519.75 C 517.714844 516.929688 520.535156 514.109375 523.359375 511.289062 L 523.359375 65.480469 C 520.535156 68.304688 517.714844 71.125 514.894531 73.945312 Z M 514.894531 73.945312 " fill-opacity="1" fill-rule="nonzero"/></g><path fill="#72a5ed" d="M 437.714844 1109.875 L 437.714844 664.078125 C 440.238281 666.601562 442.765625 669.128906 445.289062 671.652344 L 445.289062 1117.449219 C 442.765625 1114.921875 440.238281 1112.398438 437.714844 1109.875 Z M 419.261719 1091.425781 L 419.261719 645.628906 C 416.835938 643.203125 414.410156 640.777344 411.984375 638.351562 L 411.984375 1084.144531 C 414.410156 1086.570312 416.835938 1088.996094 419.261719 1091.425781 Z M 471.308594 1143.46875 L 471.308594 697.671875 C 468.6875 695.046875 466.066406 692.425781 463.441406 689.800781 L 463.441406 1135.601562 C 466.066406 1138.222656 468.6875 1140.847656 471.308594 1143.46875 Z M 257.625 331.195312 L 257.625 929.789062 C 259.457031 931.625 261.292969 933.460938 263.125 935.292969 L 263.125 325.691406 C 261.292969 327.527344 259.457031 329.363281 257.625 331.195312 Z M 231.894531 356.921875 L 231.894531 904.0625 C 233.632812 905.800781 235.367188 907.535156 237.105469 909.273438 L 237.105469 351.714844 C 235.367188 353.449219 233.632812 355.183594 231.894531 356.921875 Z M 437.714844 151.117188 L 437.714844 596.917969 C 440.238281 594.394531 442.765625 591.871094 445.289062 589.347656 L 445.289062 143.546875 C 442.761719 146.070312 440.238281 148.59375 437.714844 151.117188 Z M 463.441406 125.394531 L 463.441406 571.195312 C 466.066406 568.574219 468.6875 565.953125 471.308594 563.328125 L 471.308594 117.527344 C 468.6875 120.148438 466.066406 122.769531 463.441406 125.394531 Z M 411.984375 176.847656 L 411.984375 622.644531 C 414.410156 620.21875 416.835938 617.792969 419.261719 615.367188 L 419.261719 169.570312 C 416.835938 171.996094 414.410156 174.421875 411.984375 176.847656 Z M 283.351562 305.472656 L 283.351562 955.515625 C 285.285156 957.449219 287.214844 959.382812 289.148438 961.316406 L 289.148438 299.671875 C 287.214844 301.605469 285.285156 303.539062 283.351562 305.472656 Z M 334.800781 254.023438 L 334.800781 1006.96875 C 336.933594 1009.097656 339.066406 1011.230469 341.195312 1013.359375 L 341.195312 247.628906 C 339.066406 249.761719 336.933594 251.890625 334.800781 254.023438 Z M 309.078125 279.746094 L 309.078125 981.242188 C 311.109375 983.273438 313.140625 985.304688 315.171875 987.335938 L 315.171875 273.652344 C 313.140625 275.683594 311.109375 277.714844 309.078125 279.746094 Z M 360.53125 228.296875 L 360.53125 1032.691406 C 362.757812 1034.921875 364.988281 1037.152344 367.21875 1039.382812 L 367.21875 221.609375 C 364.988281 223.839844 362.757812 226.066406 360.53125 228.296875 Z M 386.257812 202.570312 L 386.257812 1058.421875 C 388.585938 1060.746094 390.914062 1063.074219 393.242188 1065.402344 L 393.242188 195.589844 C 390.914062 197.917969 388.585938 200.246094 386.257812 202.570312 Z M 386.257812 202.570312 " fill-opacity="1" fill-rule="nonzero"/></svg>