<svg xmlns="http://www.w3.org/2000/svg" xmlns:xlink="http://www.w3.org/1999/xlink" width="1080" zoomAndPan="magnify" viewBox="0 0 810 1261.499967" height="1682" preserveAspectRatio="xMidYMid meet" version="1.0"><defs><clipPath id="a93f02ecb4"><path d="M 598 377 L 809.632812 377 L 809.632812 884 L 598 884 Z M 598 377 " clip-rule="nonzero"/></clipPath><clipPath id="b4c95fda1e"><path d="M 0.164062 0 L 321 0 L 321 1260.996094 L 0.164062 1260.996094 Z M 0.164062 0 " clip-rule="nonzero"/></clipPath></defs><g clip-path="url(#a93f02ecb4)"><path fill="#8bb9ef" d="M 650.761719 429.78125 L 650.761719 831.203125 C 652.203125 829.761719 653.640625 828.324219 655.082031 826.882812 L 655.082031 434.097656 C 653.640625 432.660156 652.203125 431.21875 650.761719 429.78125 Z M 680.808594 459.824219 L 680.808594 801.160156 C 679.464844 802.5 678.125 803.839844 676.785156 805.179688 L 676.785156 455.800781 C 678.125 457.140625 679.464844 458.480469 680.808594 459.824219 Z M 603.625 382.648438 L 603.625 878.335938 C 601.988281 879.976562 600.351562 881.613281 598.710938 883.25 L 598.710938 377.734375 C 600.351562 379.371094 601.988281 381.007812 603.625 382.648438 Z M 706.535156 485.546875 L 706.535156 775.433594 C 705.292969 776.675781 704.050781 777.917969 702.808594 779.160156 L 702.808594 481.820312 C 704.050781 483.0625 705.292969 484.304688 706.535156 485.546875 Z M 732.261719 511.273438 L 732.261719 749.707031 C 731.117188 750.851562 729.972656 751.996094 728.828125 753.140625 L 728.828125 507.839844 C 729.972656 508.984375 731.117188 510.128906 732.261719 511.273438 Z M 809.441406 588.445312 L 809.441406 672.53125 C 808.59375 673.378906 807.746094 674.226562 806.898438 675.070312 L 806.898438 585.90625 C 807.746094 586.75 808.59375 587.597656 809.441406 588.445312 Z M 783.714844 562.722656 L 783.714844 698.253906 C 782.769531 699.203125 781.824219 700.148438 780.875 701.09375 L 780.875 559.882812 C 781.824219 560.828125 782.769531 561.777344 783.714844 562.722656 Z M 757.988281 537 L 757.988281 723.980469 C 756.945312 725.023438 755.898438 726.070312 754.851562 727.117188 L 754.851562 533.859375 C 755.898438 534.90625 756.945312 535.953125 757.988281 537 Z M 629.351562 408.371094 L 629.351562 852.613281 C 627.8125 854.152344 626.273438 855.691406 624.734375 857.230469 L 624.734375 403.753906 C 626.273438 405.292969 627.8125 406.832031 629.351562 408.371094 Z M 629.351562 408.371094 " fill-opacity="1" fill-rule="nonzero"/></g><g clip-path="url(#b4c95fda1e)"><path fill="#4a81e5" d="M 191.992188 416.859375 L 191.992188 24.273438 C 188.777344 27.488281 185.5625 30.703125 182.347656 33.917969 L 182.347656 407.214844 C 185.5625 410.429688 188.777344 413.644531 191.992188 416.859375 Z M 26.207031 251.097656 L 26.207031 190.035156 C 30.015625 186.226562 33.820312 182.417969 37.628906 178.613281 L 37.628906 262.519531 C 33.820312 258.714844 30.011719 254.90625 26.207031 251.097656 Z M 26.207031 1070.964844 L 26.207031 1009.898438 C 30.011719 1006.09375 33.820312 1002.285156 37.628906 998.476562 L 37.628906 1082.386719 C 33.820312 1078.578125 30.015625 1074.769531 26.207031 1070.964844 Z M 52.230469 1096.984375 L 52.230469 983.878906 C 55.9375 980.171875 59.644531 976.464844 63.355469 972.757812 L 63.355469 1108.105469 C 59.644531 1104.402344 55.9375 1100.691406 52.230469 1096.984375 Z M 130.300781 1175.042969 L 130.300781 905.820312 C 133.710938 902.410156 137.125 898.996094 140.539062 895.585938 L 140.539062 1185.277344 C 137.125 1181.867188 133.710938 1178.453125 130.300781 1175.042969 Z M 217.71875 442.582031 C 214.601562 439.464844 211.484375 436.351562 208.371094 433.234375 L 208.371094 7.898438 C 209.222656 7.046875 210.074219 6.195312 210.925781 5.34375 C 212.992188 3.273438 215.164062 1.40625 217.71875 0 Z M 156.320312 1201.0625 L 156.320312 879.804688 C 159.636719 876.488281 162.949219 873.175781 166.265625 869.859375 L 166.265625 1211.003906 C 162.953125 1207.6875 159.636719 1204.375 156.320312 1201.0625 Z M 130.300781 355.175781 L 130.300781 85.957031 C 133.710938 82.542969 137.125 79.132812 140.539062 75.71875 L 140.539062 365.414062 C 137.125 362.003906 133.714844 358.589844 130.300781 355.175781 Z M 156.320312 381.195312 L 156.320312 59.9375 C 159.636719 56.621094 162.953125 53.308594 166.265625 49.996094 L 166.265625 391.136719 C 162.949219 387.824219 159.636719 384.511719 156.320312 381.195312 Z M 78.253906 303.136719 L 78.253906 137.996094 C 81.863281 134.386719 85.472656 130.777344 89.082031 127.167969 L 89.082031 313.964844 C 85.472656 310.355469 81.863281 306.746094 78.253906 303.136719 Z M 52.230469 277.121094 L 52.230469 164.011719 C 55.9375 160.304688 59.644531 156.597656 63.355469 152.890625 L 63.355469 288.242188 C 59.644531 284.535156 55.9375 280.828125 52.230469 277.121094 Z M 104.273438 329.15625 L 104.273438 111.976562 C 107.785156 108.464844 111.296875 104.957031 114.808594 101.445312 L 114.808594 339.6875 C 111.296875 336.175781 107.785156 332.667969 104.273438 329.15625 Z M 104.273438 1149.023438 L 104.273438 931.84375 C 107.785156 928.332031 111.296875 924.820312 114.808594 921.3125 L 114.808594 1159.554688 C 111.296875 1156.042969 107.785156 1152.53125 104.273438 1149.023438 Z M 210.925781 1255.65625 C 210.074219 1254.804688 209.222656 1253.953125 208.371094 1253.097656 L 208.371094 827.761719 C 211.484375 824.648438 214.601562 821.53125 217.71875 818.417969 L 217.71875 1260.996094 C 215.164062 1259.59375 212.992188 1257.722656 210.925781 1255.65625 Z M 5.179688 230.074219 C 3.457031 228.355469 1.699219 226.664062 0.183594 224.773438 L 0.183594 216.40625 C 1.148438 215.179688 2.210938 214.023438 3.335938 212.898438 C 6.191406 210.046875 9.046875 207.1875 11.902344 204.335938 L 11.902344 236.796875 C 9.660156 234.558594 7.421875 232.316406 5.179688 230.074219 Z M 3.335938 1048.097656 C 2.210938 1046.976562 1.148438 1045.816406 0.183594 1044.589844 L 0.183594 1036.226562 C 1.699219 1034.335938 3.457031 1032.644531 5.179688 1030.921875 C 7.421875 1028.679688 9.660156 1026.441406 11.902344 1024.203125 L 11.902344 1056.664062 C 9.046875 1053.808594 6.191406 1050.953125 3.335938 1048.097656 Z M 260.414062 1221.535156 L 260.414062 775.726562 C 263.332031 772.808594 266.253906 769.890625 269.171875 766.96875 L 269.171875 1212.777344 C 266.253906 1215.699219 263.332031 1218.617188 260.414062 1221.535156 Z M 234.390625 1247.558594 L 234.390625 801.746094 C 237.410156 798.726562 240.429688 795.710938 243.445312 792.695312 L 243.445312 1238.503906 C 240.429688 1241.523438 237.410156 1244.539062 234.390625 1247.558594 Z M 182.347656 1227.082031 L 182.347656 853.78125 C 185.5625 850.570312 188.777344 847.355469 191.992188 844.140625 L 191.992188 1236.722656 C 188.777344 1233.507812 185.5625 1230.296875 182.347656 1227.082031 Z M 286.4375 1195.515625 L 286.4375 749.710938 C 289.257812 746.886719 292.078125 744.066406 294.898438 741.246094 L 294.898438 1187.050781 C 292.078125 1189.871094 289.257812 1192.695312 286.4375 1195.515625 Z M 312.457031 1169.492188 L 312.457031 723.691406 C 315.183594 720.96875 317.90625 718.246094 320.628906 715.523438 L 320.628906 1161.324219 C 317.902344 1164.046875 315.183594 1166.769531 312.457031 1169.492188 Z M 78.253906 1123.003906 L 78.253906 957.859375 C 81.863281 954.253906 85.472656 950.644531 89.082031 947.035156 L 89.082031 1133.832031 C 85.472656 1130.222656 81.863281 1126.613281 78.253906 1123.003906 Z M 243.445312 22.496094 L 243.445312 468.304688 C 240.425781 465.289062 237.410156 462.269531 234.390625 459.253906 L 234.390625 13.441406 C 237.410156 16.460938 240.429688 19.476562 243.445312 22.496094 Z M 320.628906 99.671875 L 320.628906 545.476562 C 317.90625 542.753906 315.179688 540.03125 312.457031 537.308594 L 312.457031 91.503906 C 315.179688 94.226562 317.902344 96.949219 320.628906 99.671875 Z M 269.171875 48.21875 L 269.171875 494.027344 C 266.253906 491.109375 263.335938 488.191406 260.414062 485.273438 L 260.414062 39.460938 C 263.332031 42.382812 266.253906 45.300781 269.171875 48.21875 Z M 294.898438 73.945312 L 294.898438 519.75 C 292.078125 516.929688 289.257812 514.109375 286.4375 511.289062 L 286.4375 65.480469 C 289.257812 68.304688 292.078125 71.125 294.898438 73.945312 Z M 294.898438 73.945312 " fill-opacity="1" fill-rule="nonzero"/></g><path fill="#72a5ed" d="M 372.078125 1109.875 L 372.078125 664.078125 C 369.554688 666.601562 367.03125 669.128906 364.507812 671.652344 L 364.507812 1117.449219 C 367.03125 1114.921875 369.554688 1112.398438 372.078125 1109.875 Z M 390.53125 1091.425781 L 390.53125 645.628906 C 392.957031 643.203125 395.382812 640.777344 397.808594 638.351562 L 397.808594 1084.144531 C 395.382812 1086.570312 392.957031 1088.996094 390.53125 1091.425781 Z M 338.484375 1143.46875 L 338.484375 697.671875 C 341.105469 695.046875 343.730469 692.425781 346.351562 689.800781 L 346.351562 1135.601562 C 343.730469 1138.222656 341.105469 1140.847656 338.484375 1143.46875 Z M 552.171875 331.195312 L 552.171875 929.789062 C 550.335938 931.625 548.5 933.460938 546.667969 935.292969 L 546.667969 325.691406 C 548.5 327.527344 550.335938 329.363281 552.171875 331.195312 Z M 577.898438 356.921875 L 577.898438 904.0625 C 576.160156 905.800781 574.425781 907.535156 572.691406 909.273438 L 572.691406 351.714844 C 574.425781 353.449219 576.160156 355.183594 577.898438 356.921875 Z M 372.078125 151.117188 L 372.078125 596.917969 C 369.554688 594.394531 367.03125 591.871094 364.507812 589.347656 L 364.507812 143.546875 C 367.03125 146.070312 369.554688 148.59375 372.078125 151.117188 Z M 346.351562 125.394531 L 346.351562 571.195312 C 343.730469 568.574219 341.105469 565.953125 338.484375 563.328125 L 338.484375 117.527344 C 341.105469 120.148438 343.730469 122.769531 346.351562 125.394531 Z M 397.808594 176.847656 L 397.808594 622.644531 C 395.382812 620.21875 392.957031 617.792969 390.53125 615.367188 L 390.53125 169.570312 C 392.957031 171.996094 395.382812 174.421875 397.808594 176.847656 Z M 526.445312 305.472656 L 526.445312 955.515625 C 524.511719 957.449219 522.578125 959.382812 520.644531 961.316406 L 520.644531 299.671875 C 522.578125 301.605469 524.511719 303.539062 526.445312 305.472656 Z M 474.992188 254.023438 L 474.992188 1006.96875 C 472.859375 1009.097656 470.730469 1011.230469 468.597656 1013.359375 L 468.597656 247.628906 C 470.730469 249.761719 472.859375 251.890625 474.992188 254.023438 Z M 500.714844 279.746094 L 500.714844 981.242188 C 498.683594 983.273438 496.652344 985.304688 494.621094 987.335938 L 494.621094 273.652344 C 496.652344 275.683594 498.683594 277.714844 500.714844 279.746094 Z M 449.265625 228.296875 L 449.265625 1032.691406 C 447.035156 1034.921875 444.804688 1037.152344 442.574219 1039.382812 L 442.574219 221.609375 C 444.804688 223.839844 447.035156 226.066406 449.265625 228.296875 Z M 423.535156 202.570312 L 423.535156 1058.421875 C 421.207031 1060.746094 418.882812 1063.074219 416.554688 1065.402344 L 416.554688 195.589844 C 418.878906 197.917969 421.207031 200.246094 423.535156 202.570312 Z M 423.535156 202.570312 " fill-opacity="1" fill-rule="nonzero"/></svg>