<svg xmlns="http://www.w3.org/2000/svg" xmlns:xlink="http://www.w3.org/1999/xlink" width="1080" zoomAndPan="magnify" viewBox="0 0 810 1261.499967" height="1682" preserveAspectRatio="xMidYMid meet" version="1.0"><defs><clipPath id="a7c8db6424"><path d="M 598 377 L 809.835938 377 L 809.835938 884 L 598 884 Z M 598 377 " clip-rule="nonzero"/></clipPath><clipPath id="1625978dc5"><path d="M 0.367188 0 L 321 0 L 321 1260.996094 L 0.367188 1260.996094 Z M 0.367188 0 " clip-rule="nonzero"/></clipPath></defs><g clip-path="url(#a7c8db6424)"><path fill="#7758ff" d="M 651.007812 429.78125 L 651.007812 831.203125 C 652.449219 829.761719 653.886719 828.324219 655.328125 826.882812 L 655.328125 434.097656 C 653.886719 432.660156 652.449219 431.21875 651.007812 429.78125 Z M 681.046875 459.824219 L 681.046875 801.160156 C 679.707031 802.5 678.367188 803.839844 677.023438 805.179688 L 677.023438 455.800781 C 678.367188 457.140625 679.707031 458.480469 681.046875 459.824219 Z M 603.886719 382.648438 L 603.886719 878.335938 C 602.246094 879.976562 600.609375 881.613281 598.972656 883.25 L 598.972656 377.734375 C 600.609375 379.371094 602.246094 381.007812 603.886719 382.648438 Z M 706.769531 485.546875 L 706.769531 775.433594 C 705.523438 776.675781 704.28125 777.917969 703.039062 779.160156 L 703.039062 481.820312 C 704.28125 483.0625 705.523438 484.304688 706.769531 485.546875 Z M 732.488281 511.273438 L 732.488281 749.707031 C 731.34375 750.851562 730.199219 751.996094 729.054688 753.140625 L 729.054688 507.839844 C 730.199219 508.984375 731.34375 510.128906 732.488281 511.273438 Z M 809.648438 588.445312 L 809.648438 672.53125 C 808.800781 673.378906 807.953125 674.226562 807.105469 675.070312 L 807.105469 585.90625 C 807.953125 586.75 808.800781 587.597656 809.648438 588.445312 Z M 783.925781 562.722656 L 783.925781 698.253906 C 782.980469 699.203125 782.035156 700.148438 781.089844 701.09375 L 781.089844 559.882812 C 782.035156 560.828125 782.980469 561.777344 783.925781 562.722656 Z M 758.207031 537 L 758.207031 723.980469 C 757.164062 725.023438 756.117188 726.070312 755.070312 727.117188 L 755.070312 533.859375 C 756.117188 534.90625 757.164062 535.953125 758.207031 537 Z M 629.605469 408.371094 L 629.605469 852.613281 C 628.066406 854.152344 626.527344 855.691406 624.988281 857.230469 L 624.988281 403.753906 C 626.527344 405.292969 628.066406 406.832031 629.605469 408.371094 Z M 629.605469 408.371094 " fill-opacity="1" fill-rule="nonzero"/></g><g clip-path="url(#1625978dc5)"><path fill="#674aec" d="M 192.355469 416.859375 L 192.355469 24.273438 C 189.144531 27.488281 185.929688 30.703125 182.714844 33.917969 L 182.714844 407.214844 C 185.929688 410.429688 189.144531 413.644531 192.355469 416.859375 Z M 26.613281 251.097656 L 26.613281 190.035156 C 30.421875 186.226562 34.226562 182.417969 38.035156 178.613281 L 38.035156 262.519531 C 34.230469 258.714844 30.421875 254.90625 26.613281 251.097656 Z M 26.613281 1070.964844 L 26.613281 1009.898438 C 30.421875 1006.09375 34.230469 1002.285156 38.035156 998.476562 L 38.035156 1082.386719 C 34.226562 1078.578125 30.421875 1074.769531 26.613281 1070.964844 Z M 52.632812 1096.984375 L 52.632812 983.878906 C 56.339844 980.171875 60.046875 976.464844 63.753906 972.757812 L 63.753906 1108.105469 C 60.046875 1104.402344 56.339844 1100.691406 52.632812 1096.984375 Z M 130.683594 1175.042969 L 130.683594 905.820312 C 134.09375 902.410156 137.507812 898.996094 140.917969 895.585938 L 140.917969 1185.277344 C 137.507812 1181.867188 134.09375 1178.453125 130.683594 1175.042969 Z M 218.078125 442.582031 C 214.960938 439.464844 211.847656 436.351562 208.730469 433.234375 L 208.730469 7.898438 C 209.582031 7.046875 210.4375 6.195312 211.289062 5.34375 C 213.351562 3.273438 215.523438 1.40625 218.078125 0 Z M 156.699219 1201.0625 L 156.699219 879.804688 C 160.011719 876.488281 163.324219 873.175781 166.640625 869.859375 L 166.640625 1211.003906 C 163.328125 1207.6875 160.011719 1204.375 156.699219 1201.0625 Z M 130.683594 355.175781 L 130.683594 85.957031 C 134.09375 82.542969 137.507812 79.132812 140.917969 75.71875 L 140.917969 365.414062 C 137.507812 362.003906 134.09375 358.589844 130.683594 355.175781 Z M 156.699219 381.195312 L 156.699219 59.9375 C 160.011719 56.621094 163.328125 53.308594 166.640625 49.996094 L 166.640625 391.136719 C 163.324219 387.824219 160.011719 384.511719 156.699219 381.195312 Z M 78.648438 303.136719 L 78.648438 137.996094 C 82.257812 134.386719 85.867188 130.777344 89.472656 127.167969 L 89.472656 313.964844 C 85.867188 310.355469 82.257812 306.746094 78.648438 303.136719 Z M 52.632812 277.121094 L 52.632812 164.011719 C 56.339844 160.304688 60.046875 156.597656 63.753906 152.890625 L 63.753906 288.242188 C 60.046875 284.535156 56.339844 280.828125 52.632812 277.121094 Z M 104.664062 329.15625 L 104.664062 111.976562 C 108.175781 108.464844 111.683594 104.957031 115.195312 101.445312 L 115.195312 339.6875 C 111.683594 336.175781 108.175781 332.667969 104.664062 329.15625 Z M 104.664062 1149.023438 L 104.664062 931.84375 C 108.175781 928.332031 111.683594 924.820312 115.195312 921.3125 L 115.195312 1159.554688 C 111.683594 1156.042969 108.175781 1152.53125 104.664062 1149.023438 Z M 211.289062 1255.65625 C 210.4375 1254.804688 209.582031 1253.953125 208.730469 1253.097656 L 208.730469 827.761719 C 211.847656 824.648438 214.960938 821.53125 218.078125 818.417969 L 218.078125 1260.996094 C 215.523438 1259.59375 213.351562 1257.722656 211.289062 1255.65625 Z M 5.59375 230.074219 C 3.871094 228.355469 2.117188 226.664062 0.597656 224.773438 L 0.597656 216.40625 C 1.566406 215.179688 2.628906 214.023438 3.75 212.898438 C 6.605469 210.046875 9.460938 207.1875 12.316406 204.335938 L 12.316406 236.796875 C 10.074219 234.558594 7.835938 232.316406 5.59375 230.074219 Z M 3.75 1048.097656 C 2.628906 1046.976562 1.566406 1045.816406 0.597656 1044.589844 L 0.597656 1036.226562 C 2.117188 1034.335938 3.875 1032.644531 5.597656 1030.921875 C 7.835938 1028.679688 10.074219 1026.441406 12.316406 1024.203125 L 12.316406 1056.664062 C 9.460938 1053.808594 6.605469 1050.953125 3.75 1048.097656 Z M 260.761719 1221.535156 L 260.761719 775.726562 C 263.679688 772.808594 266.601562 769.890625 269.519531 766.96875 L 269.519531 1212.777344 C 266.601562 1215.699219 263.679688 1218.617188 260.761719 1221.535156 Z M 234.746094 1247.558594 L 234.746094 801.746094 C 237.765625 798.726562 240.78125 795.710938 243.796875 792.695312 L 243.796875 1238.503906 C 240.78125 1241.523438 237.765625 1244.539062 234.746094 1247.558594 Z M 182.714844 1227.082031 L 182.714844 853.78125 C 185.929688 850.570312 189.144531 847.355469 192.355469 844.140625 L 192.355469 1236.722656 C 189.144531 1233.507812 185.929688 1230.296875 182.714844 1227.082031 Z M 286.777344 1195.515625 L 286.777344 749.710938 C 289.597656 746.886719 292.417969 744.066406 295.238281 741.246094 L 295.238281 1187.050781 C 292.417969 1189.871094 289.597656 1192.695312 286.777344 1195.515625 Z M 312.792969 1169.492188 L 312.792969 723.691406 C 315.515625 720.96875 318.238281 718.246094 320.960938 715.523438 L 320.960938 1161.324219 C 318.238281 1164.046875 315.515625 1166.769531 312.792969 1169.492188 Z M 78.648438 1123.003906 L 78.648438 957.859375 C 82.257812 954.253906 85.867188 950.644531 89.472656 947.035156 L 89.472656 1133.832031 C 85.867188 1130.222656 82.257812 1126.613281 78.648438 1123.003906 Z M 243.796875 22.496094 L 243.796875 468.304688 C 240.78125 465.289062 237.765625 462.269531 234.746094 459.253906 L 234.746094 13.441406 C 237.765625 16.460938 240.78125 19.476562 243.796875 22.496094 Z M 320.960938 99.671875 L 320.960938 545.476562 C 318.238281 542.753906 315.515625 540.03125 312.792969 537.308594 L 312.792969 91.503906 C 315.515625 94.226562 318.238281 96.949219 320.960938 99.671875 Z M 269.519531 48.21875 L 269.519531 494.027344 C 266.601562 491.109375 263.683594 488.191406 260.761719 485.273438 L 260.761719 39.460938 C 263.679688 42.382812 266.601562 45.300781 269.519531 48.21875 Z M 295.238281 73.945312 L 295.238281 519.75 C 292.417969 516.929688 289.597656 514.109375 286.777344 511.289062 L 286.777344 65.480469 C 289.597656 68.304688 292.417969 71.125 295.238281 73.945312 Z M 295.238281 73.945312 " fill-opacity="1" fill-rule="nonzero"/></g><path fill="#836cee" d="M 372.398438 1109.875 L 372.398438 664.078125 C 369.875 666.601562 367.351562 669.128906 364.828125 671.652344 L 364.828125 1117.449219 C 367.351562 1114.921875 369.875 1112.398438 372.398438 1109.875 Z M 390.847656 1091.425781 L 390.847656 645.628906 C 393.273438 643.203125 395.695312 640.777344 398.121094 638.351562 L 398.121094 1084.144531 C 395.695312 1086.570312 393.273438 1088.996094 390.847656 1091.425781 Z M 338.8125 1143.46875 L 338.8125 697.671875 C 341.433594 695.046875 344.054688 692.425781 346.679688 689.800781 L 346.679688 1135.601562 C 344.054688 1138.222656 341.433594 1140.847656 338.8125 1143.46875 Z M 552.445312 331.195312 L 552.445312 929.789062 C 550.609375 931.625 548.777344 933.460938 546.941406 935.292969 L 546.941406 325.691406 C 548.777344 327.527344 550.609375 329.363281 552.445312 331.195312 Z M 578.164062 356.921875 L 578.164062 904.0625 C 576.429688 905.800781 574.691406 907.535156 572.957031 909.273438 L 572.957031 351.714844 C 574.691406 353.449219 576.429688 355.183594 578.164062 356.921875 Z M 372.398438 151.117188 L 372.398438 596.917969 C 369.875 594.394531 367.351562 591.871094 364.828125 589.347656 L 364.828125 143.546875 C 367.351562 146.070312 369.875 148.59375 372.398438 151.117188 Z M 346.679688 125.394531 L 346.679688 571.195312 C 344.058594 568.574219 341.433594 565.953125 338.8125 563.328125 L 338.8125 117.527344 C 341.433594 120.148438 344.058594 122.769531 346.679688 125.394531 Z M 398.121094 176.847656 L 398.121094 622.644531 C 395.695312 620.21875 393.273438 617.792969 390.847656 615.367188 L 390.847656 169.570312 C 393.273438 171.996094 395.695312 174.421875 398.121094 176.847656 Z M 526.722656 305.472656 L 526.722656 955.515625 C 524.789062 957.449219 522.859375 959.382812 520.925781 961.316406 L 520.925781 299.671875 C 522.859375 301.605469 524.789062 303.539062 526.722656 305.472656 Z M 475.285156 254.023438 L 475.285156 1006.96875 C 473.152344 1009.097656 471.023438 1011.230469 468.890625 1013.359375 L 468.890625 247.628906 C 471.023438 249.761719 473.152344 251.890625 475.285156 254.023438 Z M 501.003906 279.746094 L 501.003906 981.242188 C 498.972656 983.273438 496.941406 985.304688 494.910156 987.335938 L 494.910156 273.652344 C 496.941406 275.683594 498.972656 277.714844 501.003906 279.746094 Z M 449.5625 228.296875 L 449.5625 1032.691406 C 447.335938 1034.921875 445.105469 1037.152344 442.878906 1039.382812 L 442.878906 221.609375 C 445.105469 223.839844 447.335938 226.066406 449.5625 228.296875 Z M 423.84375 202.570312 L 423.84375 1058.421875 C 421.515625 1060.746094 419.1875 1063.074219 416.863281 1065.402344 L 416.863281 195.589844 C 419.1875 197.917969 421.515625 200.246094 423.84375 202.570312 Z M 423.84375 202.570312 " fill-opacity="1" fill-rule="nonzero"/></svg>