<svg xmlns="http://www.w3.org/2000/svg" xmlns:xlink="http://www.w3.org/1999/xlink" width="1080" zoomAndPan="magnify" viewBox="0 0 810 1261.499967" height="1682" preserveAspectRatio="xMidYMid meet" version="1.0"><defs><clipPath id="ceefaffdb5"><path d="M 0.367188 377 L 212 377 L 212 884 L 0.367188 884 Z M 0.367188 377 " clip-rule="nonzero"/></clipPath><clipPath id="dc4cfa3683"><path d="M 489 0 L 809.839844 0 L 809.839844 1260.996094 L 489 1260.996094 Z M 489 0 " clip-rule="nonzero"/></clipPath></defs><g clip-path="url(#ceefaffdb5)"><path fill="#7758ff" d="M 159.195312 429.78125 L 159.195312 831.203125 C 157.757812 829.761719 156.320312 828.324219 154.878906 826.882812 L 154.878906 434.097656 C 156.316406 432.660156 157.757812 431.21875 159.195312 429.78125 Z M 129.160156 459.824219 L 129.160156 801.160156 C 130.5 802.5 131.839844 803.839844 133.179688 805.179688 L 133.179688 455.800781 C 131.839844 457.140625 130.5 458.480469 129.160156 459.824219 Z M 206.320312 382.648438 L 206.320312 878.335938 C 207.957031 879.976562 209.59375 881.613281 211.234375 883.25 L 211.234375 377.734375 C 209.59375 379.371094 207.957031 381.007812 206.320312 382.648438 Z M 103.4375 485.546875 L 103.4375 775.433594 C 104.679688 776.675781 105.921875 777.917969 107.164062 779.160156 L 107.164062 481.820312 C 105.921875 483.0625 104.679688 484.304688 103.4375 485.546875 Z M 77.71875 511.273438 L 77.71875 749.707031 C 78.863281 750.851562 80.003906 751.996094 81.148438 753.140625 L 81.148438 507.839844 C 80.003906 508.984375 78.863281 510.128906 77.71875 511.273438 Z M 0.558594 588.445312 L 0.558594 672.53125 C 1.40625 673.378906 2.253906 674.226562 3.101562 675.070312 L 3.101562 585.90625 C 2.253906 586.75 1.40625 587.597656 0.558594 588.445312 Z M 26.277344 562.722656 L 26.277344 698.253906 C 27.226562 699.203125 28.171875 700.148438 29.117188 701.09375 L 29.117188 559.882812 C 28.171875 560.828125 27.226562 561.777344 26.277344 562.722656 Z M 51.996094 537 L 51.996094 723.980469 C 53.042969 725.023438 54.089844 726.070312 55.132812 727.117188 L 55.132812 533.859375 C 54.089844 534.90625 53.042969 535.953125 51.996094 537 Z M 180.601562 408.371094 L 180.601562 852.613281 C 182.140625 854.152344 183.679688 855.691406 185.21875 857.230469 L 185.21875 403.753906 C 183.679688 405.292969 182.140625 406.832031 180.601562 408.371094 Z M 180.601562 408.371094 " fill-opacity="1" fill-rule="nonzero"/></g><g clip-path="url(#dc4cfa3683)"><path fill="#674aec" d="M 617.847656 416.859375 L 617.847656 24.273438 C 621.0625 27.488281 624.277344 30.703125 627.488281 33.917969 L 627.488281 407.214844 C 624.277344 410.429688 621.0625 413.644531 617.847656 416.859375 Z M 783.589844 251.097656 L 783.589844 190.035156 C 779.78125 186.226562 775.976562 182.417969 772.167969 178.613281 L 772.167969 262.519531 C 775.976562 258.714844 779.785156 254.90625 783.589844 251.097656 Z M 783.589844 1070.964844 L 783.589844 1009.898438 C 779.785156 1006.09375 775.976562 1002.285156 772.167969 998.476562 L 772.167969 1082.386719 C 775.976562 1078.578125 779.78125 1074.769531 783.589844 1070.964844 Z M 757.574219 1096.984375 L 757.574219 983.878906 C 753.867188 980.171875 750.160156 976.464844 746.453125 972.757812 L 746.453125 1108.105469 C 750.160156 1104.402344 753.863281 1100.691406 757.574219 1096.984375 Z M 679.523438 1175.042969 L 679.523438 905.820312 C 676.113281 902.410156 672.699219 898.996094 669.289062 895.585938 L 669.289062 1185.277344 C 672.699219 1181.867188 676.113281 1178.453125 679.523438 1175.042969 Z M 592.128906 442.582031 C 595.242188 439.464844 598.359375 436.351562 601.472656 433.234375 L 601.472656 7.898438 C 600.621094 7.046875 599.769531 6.195312 598.917969 5.34375 C 596.851562 3.273438 594.683594 1.40625 592.128906 0 Z M 653.507812 1201.0625 L 653.507812 879.804688 C 650.195312 876.488281 646.878906 873.175781 643.566406 869.859375 L 643.566406 1211.003906 C 646.878906 1207.6875 650.195312 1204.375 653.507812 1201.0625 Z M 679.523438 355.175781 L 679.523438 85.957031 C 676.113281 82.542969 672.699219 79.132812 669.289062 75.71875 L 669.289062 365.414062 C 672.699219 362.003906 676.109375 358.589844 679.523438 355.175781 Z M 653.507812 381.195312 L 653.507812 59.9375 C 650.195312 56.621094 646.878906 53.308594 643.566406 49.996094 L 643.566406 391.136719 C 646.878906 387.824219 650.195312 384.511719 653.507812 381.195312 Z M 731.558594 303.136719 L 731.558594 137.996094 C 727.949219 134.386719 724.339844 130.777344 720.730469 127.167969 L 720.730469 313.964844 C 724.339844 310.355469 727.949219 306.746094 731.558594 303.136719 Z M 757.574219 277.121094 L 757.574219 164.011719 C 753.863281 160.304688 750.160156 156.597656 746.453125 152.890625 L 746.453125 288.242188 C 750.160156 284.535156 753.867188 280.828125 757.574219 277.121094 Z M 705.542969 329.15625 L 705.542969 111.976562 C 702.03125 108.464844 698.519531 104.957031 695.011719 101.445312 L 695.011719 339.6875 C 698.519531 336.175781 702.03125 332.667969 705.542969 329.15625 Z M 705.542969 1149.023438 L 705.542969 931.84375 C 702.03125 928.332031 698.519531 924.820312 695.011719 921.3125 L 695.011719 1159.554688 C 698.519531 1156.042969 702.03125 1152.53125 705.542969 1149.023438 Z M 598.917969 1255.65625 C 599.769531 1254.804688 600.621094 1253.953125 601.472656 1253.097656 L 601.472656 827.761719 C 598.359375 824.648438 595.242188 821.53125 592.128906 818.417969 L 592.128906 1260.996094 C 594.683594 1259.59375 596.851562 1257.722656 598.917969 1255.65625 Z M 804.609375 230.074219 C 806.332031 228.355469 808.089844 226.664062 809.605469 224.773438 L 809.605469 216.40625 C 808.640625 215.179688 807.578125 214.023438 806.453125 212.898438 C 803.597656 210.046875 800.746094 207.1875 797.890625 204.335938 L 797.890625 236.796875 C 800.132812 234.558594 802.371094 232.316406 804.609375 230.074219 Z M 806.453125 1048.097656 C 807.578125 1046.976562 808.640625 1045.816406 809.605469 1044.589844 L 809.605469 1036.226562 C 808.089844 1034.335938 806.332031 1032.644531 804.609375 1030.921875 C 802.371094 1028.679688 800.128906 1026.441406 797.890625 1024.203125 L 797.890625 1056.664062 C 800.746094 1053.808594 803.597656 1050.953125 806.453125 1048.097656 Z M 549.441406 1221.535156 L 549.441406 775.726562 C 546.523438 772.808594 543.605469 769.890625 540.6875 766.96875 L 540.6875 1212.777344 C 543.605469 1215.699219 546.523438 1218.617188 549.441406 1221.535156 Z M 575.457031 1247.558594 L 575.457031 801.746094 C 572.441406 798.726562 569.425781 795.710938 566.40625 792.695312 L 566.40625 1238.503906 C 569.425781 1241.523438 572.441406 1244.539062 575.457031 1247.558594 Z M 627.488281 1227.082031 L 627.488281 853.78125 C 624.277344 850.570312 621.0625 847.355469 617.847656 844.140625 L 617.847656 1236.722656 C 621.0625 1233.507812 624.277344 1230.296875 627.488281 1227.082031 Z M 523.425781 1195.515625 L 523.425781 749.710938 C 520.605469 746.886719 517.785156 744.066406 514.964844 741.246094 L 514.964844 1187.050781 C 517.785156 1189.871094 520.605469 1192.695312 523.425781 1195.515625 Z M 497.410156 1169.492188 L 497.410156 723.691406 C 494.691406 720.96875 491.96875 718.246094 489.246094 715.523438 L 489.246094 1161.324219 C 491.96875 1164.046875 494.691406 1166.769531 497.410156 1169.492188 Z M 731.558594 1123.003906 L 731.558594 957.859375 C 727.949219 954.253906 724.339844 950.644531 720.730469 947.035156 L 720.730469 1133.832031 C 724.339844 1130.222656 727.949219 1126.613281 731.558594 1123.003906 Z M 566.40625 22.496094 L 566.40625 468.304688 C 569.425781 465.289062 572.441406 462.269531 575.457031 459.253906 L 575.457031 13.441406 C 572.441406 16.460938 569.425781 19.476562 566.40625 22.496094 Z M 489.246094 99.671875 L 489.246094 545.476562 C 491.96875 542.753906 494.691406 540.03125 497.410156 537.308594 L 497.410156 91.503906 C 494.691406 94.226562 491.96875 96.949219 489.246094 99.671875 Z M 540.6875 48.21875 L 540.6875 494.027344 C 543.605469 491.109375 546.523438 488.191406 549.441406 485.273438 L 549.441406 39.460938 C 546.523438 42.382812 543.605469 45.300781 540.6875 48.21875 Z M 514.964844 73.945312 L 514.964844 519.75 C 517.785156 516.929688 520.605469 514.109375 523.425781 511.289062 L 523.425781 65.480469 C 520.605469 68.304688 517.785156 71.125 514.964844 73.945312 Z M 514.964844 73.945312 " fill-opacity="1" fill-rule="nonzero"/></g><path fill="#836cee" d="M 437.808594 1109.875 L 437.808594 664.078125 C 440.332031 666.601562 442.855469 669.128906 445.378906 671.652344 L 445.378906 1117.449219 C 442.855469 1114.921875 440.332031 1112.398438 437.808594 1109.875 Z M 419.359375 1091.425781 L 419.359375 645.628906 C 416.933594 643.203125 414.507812 640.777344 412.082031 638.351562 L 412.082031 1084.144531 C 414.507812 1086.570312 416.933594 1088.996094 419.359375 1091.425781 Z M 471.394531 1143.46875 L 471.394531 697.671875 C 468.773438 695.046875 466.148438 692.425781 463.527344 689.800781 L 463.527344 1135.601562 C 466.148438 1138.222656 468.769531 1140.847656 471.394531 1143.46875 Z M 257.761719 331.195312 L 257.761719 929.789062 C 259.597656 931.625 261.429688 933.460938 263.265625 935.292969 L 263.265625 325.691406 C 261.429688 327.527344 259.597656 329.363281 257.761719 331.195312 Z M 232.042969 356.921875 L 232.042969 904.0625 C 233.777344 905.800781 235.511719 907.535156 237.25 909.273438 L 237.25 351.714844 C 235.511719 353.449219 233.777344 355.183594 232.042969 356.921875 Z M 437.808594 151.117188 L 437.808594 596.917969 C 440.332031 594.394531 442.855469 591.871094 445.378906 589.347656 L 445.378906 143.546875 C 442.855469 146.070312 440.332031 148.59375 437.808594 151.117188 Z M 463.527344 125.394531 L 463.527344 571.195312 C 466.148438 568.574219 468.773438 565.953125 471.394531 563.328125 L 471.394531 117.527344 C 468.769531 120.148438 466.148438 122.769531 463.527344 125.394531 Z M 412.082031 176.847656 L 412.082031 622.644531 C 414.507812 620.21875 416.933594 617.792969 419.359375 615.367188 L 419.359375 169.570312 C 416.933594 171.996094 414.507812 174.421875 412.082031 176.847656 Z M 283.484375 305.472656 L 283.484375 955.515625 C 285.414062 957.449219 287.347656 959.382812 289.28125 961.316406 L 289.28125 299.671875 C 287.347656 301.605469 285.414062 303.539062 283.484375 305.472656 Z M 334.921875 254.023438 L 334.921875 1006.96875 C 337.050781 1009.097656 339.183594 1011.230469 341.3125 1013.359375 L 341.3125 247.628906 C 339.183594 249.761719 337.050781 251.890625 334.921875 254.023438 Z M 309.203125 279.746094 L 309.203125 981.242188 C 311.234375 983.273438 313.265625 985.304688 315.296875 987.335938 L 315.296875 273.652344 C 313.265625 275.683594 311.234375 277.714844 309.203125 279.746094 Z M 360.640625 228.296875 L 360.640625 1032.691406 C 362.871094 1034.921875 365.101562 1037.152344 367.328125 1039.382812 L 367.328125 221.609375 C 365.101562 223.839844 362.871094 226.066406 360.640625 228.296875 Z M 386.363281 202.570312 L 386.363281 1058.421875 C 388.691406 1060.746094 391.015625 1063.074219 393.34375 1065.402344 L 393.34375 195.589844 C 391.015625 197.917969 388.691406 200.246094 386.363281 202.570312 Z M 386.363281 202.570312 " fill-opacity="1" fill-rule="nonzero"/></svg>