<svg xmlns="http://www.w3.org/2000/svg" xmlns:xlink="http://www.w3.org/1999/xlink" width="1080" zoomAndPan="magnify" viewBox="0 0 810 809.999993" height="1080" preserveAspectRatio="xMidYMid meet" version="1.0"><defs><g/><clipPath id="92ea5574c5"><path d="M 405 0 C 181.324219 0 0 181.324219 0 405 C 0 628.675781 181.324219 810 405 810 C 628.675781 810 810 628.675781 810 405 C 810 181.324219 628.675781 0 405 0 Z M 405 0 " clip-rule="nonzero"/></clipPath></defs><g clip-path="url(#92ea5574c5)"><rect x="-81" width="972" fill="#000000" y="-80.999999" height="971.999992" fill-opacity="1"/></g><g fill="#ff7b54" fill-opacity="1"><g transform="translate(80.999999, 486.2742)"><g><path d="M 119.828125 -156.171875 C 118.878906 -149.734375 118.023438 -144.335938 117.265625 -139.984375 C 116.515625 -135.628906 115.851562 -132.316406 115.28125 -130.046875 C 114.71875 -127.210938 114.101562 -124.707031 113.4375 -122.53125 C 112.78125 -120.351562 112.070312 -118.410156 111.3125 -116.703125 C 109.414062 -112.535156 106.578125 -109.316406 102.796875 -107.046875 C 99.953125 -105.535156 94.742188 -103.265625 87.171875 -100.234375 L 47.140625 -84.625 L 81.78125 -68.15625 C 87.832031 -64.738281 91.992188 -62.273438 94.265625 -60.765625 C 96.921875 -58.867188 98.816406 -57.164062 99.953125 -55.65625 C 102.222656 -52.8125 103.359375 -48.644531 103.359375 -43.15625 C 103.359375 -39.1875 102.222656 -29.816406 99.953125 -15.046875 L 54.515625 -36.90625 L 23.28125 -51.671875 C 18.175781 -53.953125 14.203125 -55.941406 11.359375 -57.640625 C 8.140625 -60.097656 5.960938 -62.367188 4.828125 -64.453125 C 4.253906 -65.972656 3.78125 -67.535156 3.40625 -69.140625 C 3.03125 -70.753906 2.84375 -72.503906 2.84375 -74.390625 C 2.84375 -77.234375 3.125 -80.738281 3.6875 -84.90625 C 4.257812 -88.125 4.734375 -90.820312 5.109375 -93 C 5.484375 -95.175781 5.769531 -96.738281 5.96875 -97.6875 C 7.289062 -101.46875 8.519531 -104.304688 9.65625 -106.203125 C 11.351562 -108.472656 13.625 -110.742188 16.46875 -113.015625 C 19.875 -115.285156 24.796875 -118.03125 31.234375 -121.25 Z M 119.828125 -156.171875 "/></g></g></g><g fill="#ff7b54" fill-opacity="1"><g transform="translate(203.670891, 486.2742)"><g><path d="M 56.21875 -140.5625 L 162.984375 -140.5625 C 162.234375 -134.875 161.523438 -130.140625 160.859375 -126.359375 C 160.191406 -122.578125 159.578125 -119.644531 159.015625 -117.5625 C 157.878906 -112.070312 155.984375 -108.191406 153.328125 -105.921875 C 150.304688 -103.265625 145.382812 -101.65625 138.5625 -101.09375 C 136.675781 -101.09375 133.976562 -101.039062 130.46875 -100.9375 C 126.96875 -100.84375 122.472656 -100.703125 116.984375 -100.515625 L 66.15625 -100.515625 C 65.40625 -100.515625 64.648438 -100.5625 63.890625 -100.65625 C 63.128906 -100.75 62.46875 -100.796875 61.90625 -100.796875 C 60.195312 -100.796875 58.960938 -100.609375 58.203125 -100.234375 C 57.066406 -100.234375 56.21875 -99.953125 55.65625 -99.390625 C 55.082031 -98.816406 54.515625 -97.675781 53.953125 -95.96875 C 53.953125 -95.03125 53.664062 -93.140625 53.09375 -90.296875 L 46 -39.75 L 148.796875 -39.75 C 148.035156 -33.882812 147.320312 -28.960938 146.65625 -24.984375 C 146 -21.015625 145.382812 -17.988281 144.8125 -15.90625 C 143.675781 -10.601562 141.691406 -6.816406 138.859375 -4.546875 C 136.203125 -2.460938 132.035156 -1.132812 126.359375 -0.5625 C 124.460938 -0.375 121.617188 -0.234375 117.828125 -0.140625 C 114.046875 -0.046875 109.222656 0 103.359375 0 L 39.75 0 C 32.9375 0 27.351562 -0.140625 23 -0.421875 C 18.644531 -0.710938 15.425781 -0.953125 13.34375 -1.140625 C 9.363281 -1.890625 6.523438 -3.5 4.828125 -5.96875 C 4.253906 -7.101562 3.78125 -8.472656 3.40625 -10.078125 C 3.03125 -11.691406 2.84375 -13.441406 2.84375 -15.328125 L 2.84375 -17.328125 C 3.03125 -19.398438 3.359375 -22.28125 3.828125 -25.96875 C 4.304688 -29.664062 4.921875 -34.257812 5.671875 -39.75 C 6.242188 -43.15625 6.90625 -47.367188 7.65625 -52.390625 C 8.414062 -57.410156 9.175781 -63.328125 9.9375 -70.140625 C 10.882812 -76.953125 11.734375 -82.863281 12.484375 -87.875 C 13.242188 -92.894531 13.816406 -97.109375 14.203125 -100.515625 C 15.148438 -106.191406 15.90625 -110.875 16.46875 -114.5625 C 17.039062 -118.257812 17.421875 -121.054688 17.609375 -122.953125 C 19.117188 -129.003906 21.101562 -133.171875 23.5625 -135.453125 C 26.21875 -137.722656 30.003906 -139.140625 34.921875 -139.703125 C 38.898438 -140.273438 46 -140.5625 56.21875 -140.5625 Z M 56.21875 -140.5625 "/></g></g></g><g fill="#ff7b54" fill-opacity="1"><g transform="translate(364.96042, 486.2742)"><g><path d="M 13.90625 -100.796875 C 15.613281 -112.910156 17.035156 -120.957031 18.171875 -124.9375 C 19.492188 -130.238281 21.671875 -134.117188 24.703125 -136.578125 C 27.160156 -138.472656 30.945312 -139.703125 36.0625 -140.265625 C 38.144531 -140.648438 40.9375 -140.84375 44.4375 -140.84375 C 47.9375 -140.84375 52.242188 -140.84375 57.359375 -140.84375 L 162.703125 -140.84375 C 161.003906 -127.96875 159.394531 -119.351562 157.875 -115 C 156.175781 -109.695312 153.335938 -106.003906 149.359375 -103.921875 C 148.222656 -103.359375 146.941406 -102.929688 145.515625 -102.640625 C 144.097656 -102.359375 142.347656 -102.03125 140.265625 -101.65625 C 136.859375 -101.082031 130.519531 -100.796875 121.25 -100.796875 L 65.59375 -100.796875 C 63.695312 -100.796875 62.039062 -100.796875 60.625 -100.796875 C 59.207031 -100.796875 58.210938 -100.703125 57.640625 -100.515625 C 56.316406 -100.515625 55.367188 -100.039062 54.796875 -99.09375 C 54.421875 -98.71875 54.046875 -97.867188 53.671875 -96.546875 C 53.671875 -95.785156 53.382812 -93.796875 52.8125 -90.578125 L 115.28125 -90.578125 C 120.957031 -90.578125 125.640625 -90.578125 129.328125 -90.578125 C 133.023438 -90.578125 135.726562 -90.390625 137.4375 -90.015625 C 143.488281 -89.441406 147.554688 -87.925781 149.640625 -85.46875 C 151.535156 -83.382812 152.484375 -79.691406 152.484375 -74.390625 L 152.484375 -72.6875 C 152.484375 -70.988281 152.289062 -68.289062 151.90625 -64.59375 C 151.53125 -60.90625 150.96875 -56.222656 150.21875 -50.546875 L 148.796875 -40.03125 C 148.035156 -33.789062 147.226562 -28.632812 146.375 -24.5625 C 145.519531 -20.488281 144.8125 -17.410156 144.25 -15.328125 C 143.113281 -11.359375 141.785156 -8.425781 140.265625 -6.53125 C 137.992188 -4.257812 134.78125 -2.554688 130.625 -1.421875 C 128.726562 -1.234375 125.410156 -0.992188 120.671875 -0.703125 C 115.941406 -0.421875 109.984375 -0.28125 102.796875 -0.28125 L 40.328125 -0.28125 C 32.941406 -0.28125 26.976562 -0.421875 22.4375 -0.703125 C 17.894531 -0.992188 14.582031 -1.234375 12.5 -1.421875 C 8.894531 -2.554688 6.335938 -4.070312 4.828125 -5.96875 C 3.503906 -8.050781 2.84375 -11.269531 2.84375 -15.625 C 2.84375 -19.40625 3.691406 -27.539062 5.390625 -40.03125 L 98.8125 -40.03125 C 100.519531 -40.03125 101.941406 -40.078125 103.078125 -40.171875 C 104.210938 -40.273438 104.96875 -40.328125 105.34375 -40.328125 C 106.289062 -40.515625 107.144531 -40.984375 107.90625 -41.734375 C 108.65625 -42.867188 109.03125 -44.007812 109.03125 -45.15625 C 109.414062 -46.289062 109.703125 -48.085938 109.890625 -50.546875 L 40.328125 -50.546875 C 36.535156 -50.546875 33.21875 -50.59375 30.375 -50.6875 C 27.539062 -50.78125 25.269531 -50.921875 23.5625 -51.109375 C 18.269531 -51.679688 14.390625 -53.007812 11.921875 -55.09375 C 10.035156 -57.363281 9.09375 -60.578125 9.09375 -64.734375 L 9.09375 -68.15625 C 9.46875 -70.039062 9.9375 -72.828125 10.5 -76.515625 C 11.070312 -80.210938 11.738281 -84.898438 12.5 -90.578125 Z M 13.90625 -100.796875 "/></g></g></g><g fill="#ff7b54" fill-opacity="1"><g transform="translate(526.249978, 486.2742)"><g><path d="M 31.234375 -182.015625 C 32.179688 -187.503906 32.984375 -192.046875 33.640625 -195.640625 C 34.304688 -199.234375 34.734375 -201.882812 34.921875 -203.59375 C 36.628906 -210.03125 38.617188 -214.382812 40.890625 -216.65625 C 43.347656 -219.113281 46.566406 -220.628906 50.546875 -221.203125 C 53.765625 -221.953125 59.820312 -222.328125 68.71875 -222.328125 L 77.234375 -222.328125 L 71.5625 -182.015625 L 65.03125 -134.03125 L 55.65625 -68.4375 L 48.84375 -19.03125 C 48.082031 -13.726562 47.414062 -9.273438 46.84375 -5.671875 C 46.28125 -2.078125 45.71875 0.566406 45.15625 2.265625 C 44.007812 7.378906 42.585938 11.070312 40.890625 13.34375 C 38.804688 16.5625 35.398438 18.738281 30.671875 19.875 C 28.773438 20.0625 25.457031 20.296875 20.71875 20.578125 C 15.988281 20.867188 10.03125 21.015625 2.84375 21.015625 L 8.515625 -18.734375 L 17.328125 -83.203125 L 24.703125 -135.453125 Z M 31.234375 -182.015625 "/></g></g></g><g fill="#ff7b54" fill-opacity="1"><g transform="translate(606.3268, 486.2742)"><g><path d="M 2.84375 -17.03125 C 3.976562 -23.65625 4.921875 -29.097656 5.671875 -33.359375 C 6.429688 -37.617188 7 -40.789062 7.375 -42.875 C 8.132812 -45.90625 8.84375 -48.554688 9.5 -50.828125 C 10.164062 -53.097656 10.785156 -54.894531 11.359375 -56.21875 C 13.441406 -60.757812 16.375 -64.070312 20.15625 -66.15625 C 21.476562 -67.101562 23.414062 -68.097656 25.96875 -69.140625 C 28.53125 -70.179688 31.707031 -71.363281 35.5 -72.6875 L 75.53125 -88.59375 L 40.890625 -105.0625 C 37.859375 -106.769531 35.347656 -108.238281 33.359375 -109.46875 C 31.378906 -110.695312 29.816406 -111.691406 28.671875 -112.453125 C 26.210938 -114.335938 24.320312 -116.039062 23 -117.5625 C 20.539062 -120.582031 19.3125 -124.648438 19.3125 -129.765625 C 19.3125 -134.304688 20.445312 -143.769531 22.71875 -158.15625 L 68.15625 -136.296875 L 99.671875 -121.25 C 104.972656 -119.164062 108.851562 -117.175781 111.3125 -115.28125 C 114.71875 -113.582031 116.988281 -111.3125 118.125 -108.46875 C 119.257812 -106.195312 119.828125 -102.976562 119.828125 -98.8125 C 119.828125 -96.351562 119.539062 -92.851562 118.96875 -88.3125 C 118.59375 -85.28125 118.210938 -82.675781 117.828125 -80.5 C 117.453125 -78.320312 117.078125 -76.664062 116.703125 -75.53125 C 115.753906 -71.9375 114.523438 -69.097656 113.015625 -67.015625 C 111.691406 -64.742188 109.421875 -62.472656 106.203125 -60.203125 C 104.679688 -59.066406 102.691406 -57.785156 100.234375 -56.359375 C 97.773438 -54.941406 94.9375 -53.476562 91.71875 -51.96875 Z M 2.84375 -17.03125 "/></g></g></g></svg>