<svg xmlns="http://www.w3.org/2000/svg" xmlns:xlink="http://www.w3.org/1999/xlink" width="500" zoomAndPan="magnify" viewBox="0 0 375 74.999997" height="100" preserveAspectRatio="xMidYMid meet" version="1.0"><defs><g/></defs><g fill="#ff7b54" fill-opacity="1"><g transform="translate(0.0240577, 52.798434)"><g><path d="M 23.09375 -30.109375 C 22.914062 -28.867188 22.753906 -27.828125 22.609375 -26.984375 C 22.460938 -26.140625 22.332031 -25.5 22.21875 -25.0625 C 22.113281 -24.519531 21.992188 -24.035156 21.859375 -23.609375 C 21.734375 -23.191406 21.597656 -22.820312 21.453125 -22.5 C 21.085938 -21.695312 20.539062 -21.078125 19.8125 -20.640625 C 19.269531 -20.347656 18.265625 -19.910156 16.796875 -19.328125 L 9.078125 -16.3125 L 15.765625 -13.140625 C 16.929688 -12.484375 17.734375 -12.007812 18.171875 -11.71875 C 18.679688 -11.351562 19.046875 -11.023438 19.265625 -10.734375 C 19.703125 -10.179688 19.921875 -9.375 19.921875 -8.3125 C 19.921875 -7.550781 19.703125 -5.75 19.265625 -2.90625 L 10.515625 -7.109375 L 4.484375 -9.96875 C 3.503906 -10.40625 2.738281 -10.785156 2.1875 -11.109375 C 1.570312 -11.585938 1.15625 -12.023438 0.9375 -12.421875 C 0.820312 -12.710938 0.726562 -13.015625 0.65625 -13.328125 C 0.582031 -13.640625 0.546875 -13.976562 0.546875 -14.34375 C 0.546875 -14.882812 0.601562 -15.554688 0.71875 -16.359375 C 0.820312 -16.984375 0.910156 -17.503906 0.984375 -17.921875 C 1.054688 -18.347656 1.113281 -18.648438 1.15625 -18.828125 C 1.40625 -19.554688 1.640625 -20.101562 1.859375 -20.46875 C 2.191406 -20.90625 2.628906 -21.34375 3.171875 -21.78125 C 3.828125 -22.21875 4.773438 -22.75 6.015625 -23.375 Z M 23.09375 -30.109375 "/></g></g></g><g fill="#ff7b54" fill-opacity="1"><g transform="translate(23.665744, 52.798434)"><g/></g></g><g fill="#ff7b54" fill-opacity="1"><g transform="translate(40.083582, 52.798434)"><g><path d="M 10.84375 -27.09375 L 31.421875 -27.09375 C 31.273438 -26 31.132812 -25.085938 31 -24.359375 C 30.875 -23.628906 30.757812 -23.0625 30.65625 -22.65625 C 30.4375 -21.601562 30.070312 -20.859375 29.5625 -20.421875 C 28.976562 -19.910156 28.023438 -19.597656 26.703125 -19.484375 C 26.335938 -19.484375 25.816406 -19.472656 25.140625 -19.453125 C 24.472656 -19.441406 23.609375 -19.414062 22.546875 -19.375 L 12.75 -19.375 C 12.601562 -19.375 12.457031 -19.382812 12.3125 -19.40625 C 12.164062 -19.425781 12.039062 -19.4375 11.9375 -19.4375 C 11.601562 -19.4375 11.363281 -19.398438 11.21875 -19.328125 C 11 -19.328125 10.835938 -19.269531 10.734375 -19.15625 C 10.617188 -19.050781 10.507812 -18.832031 10.40625 -18.5 C 10.40625 -18.320312 10.347656 -17.957031 10.234375 -17.40625 L 8.859375 -7.65625 L 28.6875 -7.65625 C 28.539062 -6.53125 28.398438 -5.582031 28.265625 -4.8125 C 28.140625 -4.050781 28.023438 -3.46875 27.921875 -3.0625 C 27.703125 -2.039062 27.316406 -1.3125 26.765625 -0.875 C 26.253906 -0.476562 25.453125 -0.222656 24.359375 -0.109375 C 23.992188 -0.078125 23.445312 -0.0507812 22.71875 -0.03125 C 21.988281 -0.0078125 21.054688 0 19.921875 0 L 7.65625 0 C 6.34375 0 5.265625 -0.0234375 4.421875 -0.078125 C 3.585938 -0.140625 2.972656 -0.1875 2.578125 -0.21875 C 1.804688 -0.363281 1.257812 -0.675781 0.9375 -1.15625 C 0.820312 -1.375 0.726562 -1.632812 0.65625 -1.9375 C 0.582031 -2.25 0.546875 -2.585938 0.546875 -2.953125 L 0.546875 -3.34375 C 0.585938 -3.738281 0.648438 -4.289062 0.734375 -5 C 0.828125 -5.71875 0.945312 -6.601562 1.09375 -7.65625 C 1.207031 -8.3125 1.335938 -9.125 1.484375 -10.09375 C 1.628906 -11.0625 1.773438 -12.203125 1.921875 -13.515625 C 2.097656 -14.828125 2.257812 -15.96875 2.40625 -16.9375 C 2.550781 -17.90625 2.660156 -18.71875 2.734375 -19.375 C 2.921875 -20.46875 3.066406 -21.367188 3.171875 -22.078125 C 3.285156 -22.796875 3.359375 -23.335938 3.390625 -23.703125 C 3.679688 -24.867188 4.066406 -25.671875 4.546875 -26.109375 C 5.054688 -26.546875 5.785156 -26.816406 6.734375 -26.921875 C 7.492188 -27.035156 8.863281 -27.09375 10.84375 -27.09375 Z M 10.84375 -27.09375 "/></g></g></g><g fill="#ff7b54" fill-opacity="1"><g transform="translate(71.168011, 52.798434)"><g><path d="M 2.6875 -19.4375 C 2.90625 -21.070312 3.066406 -22.144531 3.171875 -22.65625 C 3.503906 -24.332031 3.941406 -25.445312 4.484375 -26 C 4.992188 -26.539062 5.78125 -26.867188 6.84375 -26.984375 C 7.238281 -27.054688 7.800781 -27.09375 8.53125 -27.09375 C 9.269531 -27.09375 10.1875 -27.09375 11.28125 -27.09375 L 23.859375 -27.09375 C 25.210938 -27.09375 26.316406 -27.070312 27.171875 -27.03125 C 28.035156 -27 28.648438 -26.925781 29.015625 -26.8125 C 29.671875 -26.707031 30.144531 -26.414062 30.4375 -25.9375 C 30.6875 -25.570312 30.8125 -24.972656 30.8125 -24.140625 L 30.8125 -23.59375 C 30.8125 -22.894531 30.648438 -21.507812 30.328125 -19.4375 L 28.6875 -7.71875 C 28.425781 -5.78125 28.207031 -4.445312 28.03125 -3.71875 C 27.8125 -2.695312 27.535156 -1.953125 27.203125 -1.484375 C 26.796875 -0.859375 26.066406 -0.4375 25.015625 -0.21875 C 24.648438 -0.1875 24.066406 -0.140625 23.265625 -0.078125 C 22.460938 -0.0234375 21.441406 0 20.203125 0 L 7.328125 0 C 6.160156 0 5.191406 -0.0234375 4.421875 -0.078125 C 3.660156 -0.140625 3.082031 -0.1875 2.6875 -0.21875 C 1.882812 -0.363281 1.300781 -0.675781 0.9375 -1.15625 C 0.820312 -1.375 0.726562 -1.632812 0.65625 -1.9375 C 0.582031 -2.25 0.546875 -2.585938 0.546875 -2.953125 L 0.546875 -3.609375 C 0.617188 -4.335938 0.785156 -5.707031 1.046875 -7.71875 C 1.148438 -8.445312 1.285156 -9.332031 1.453125 -10.375 C 1.617188 -11.414062 1.789062 -12.609375 1.96875 -13.953125 C 2.1875 -15.335938 2.347656 -16.476562 2.453125 -17.375 C 2.566406 -18.269531 2.644531 -18.957031 2.6875 -19.4375 Z M 13.140625 -19.4375 C 12.703125 -19.4375 12.335938 -19.4375 12.046875 -19.4375 C 11.753906 -19.4375 11.535156 -19.414062 11.390625 -19.375 C 11.023438 -19.300781 10.769531 -19.191406 10.625 -19.046875 C 10.507812 -18.941406 10.398438 -18.628906 10.296875 -18.109375 C 10.296875 -18.078125 10.285156 -17.992188 10.265625 -17.859375 C 10.242188 -17.734375 10.21875 -17.582031 10.1875 -17.40625 L 8.8125 -7.71875 L 20.203125 -7.71875 C 20.453125 -7.789062 20.613281 -7.863281 20.6875 -7.9375 C 20.832031 -8.082031 20.90625 -8.242188 20.90625 -8.421875 C 20.976562 -8.535156 21.03125 -8.691406 21.0625 -8.890625 C 21.101562 -9.097656 21.144531 -9.363281 21.1875 -9.6875 L 22.546875 -19.4375 Z M 13.140625 -19.4375 "/></g></g></g><g fill="#ff7b54" fill-opacity="1"><g transform="translate(102.471346, 52.798434)"><g><path d="M 24.6875 -33.609375 C 24.789062 -34.296875 24.953125 -34.878906 25.171875 -35.359375 C 25.503906 -36.085938 25.941406 -36.632812 26.484375 -37 C 26.960938 -37.363281 27.492188 -37.617188 28.078125 -37.765625 C 28.410156 -37.878906 28.757812 -37.972656 29.125 -38.046875 C 29.488281 -38.117188 29.867188 -38.171875 30.265625 -38.203125 C 30.554688 -38.242188 30.863281 -38.269531 31.1875 -38.28125 C 31.519531 -38.300781 31.867188 -38.3125 32.234375 -38.3125 L 34.859375 -38.3125 C 34.273438 -37.769531 33.835938 -37.390625 33.546875 -37.171875 C 33.398438 -37.023438 33.269531 -36.894531 33.15625 -36.78125 C 33.050781 -36.675781 32.960938 -36.566406 32.890625 -36.453125 C 32.742188 -36.265625 32.617188 -36.023438 32.515625 -35.734375 C 32.515625 -35.554688 32.457031 -35.25 32.34375 -34.8125 L 31.359375 -27.09375 L 28.953125 -9.75 L 28.6875 -7.71875 C 28.570312 -6.769531 28.457031 -5.96875 28.34375 -5.3125 C 28.238281 -4.65625 28.148438 -4.160156 28.078125 -3.828125 C 27.859375 -2.660156 27.546875 -1.820312 27.140625 -1.3125 C 26.671875 -0.65625 25.722656 -0.253906 24.296875 -0.109375 C 23.929688 -0.078125 23.382812 -0.0507812 22.65625 -0.03125 C 21.925781 -0.0078125 21.015625 0 19.921875 0 L 7.609375 0 C 6.691406 0 5.921875 -0.0078125 5.296875 -0.03125 C 4.679688 -0.0507812 4.210938 -0.0625 3.890625 -0.0625 C 2.210938 -0.164062 1.191406 -0.601562 0.828125 -1.375 C 0.640625 -1.8125 0.546875 -2.335938 0.546875 -2.953125 C 0.546875 -3.140625 0.554688 -3.3125 0.578125 -3.46875 C 0.597656 -3.632812 0.609375 -3.8125 0.609375 -4 C 0.679688 -4.6875 0.84375 -5.925781 1.09375 -7.71875 C 1.207031 -8.445312 1.335938 -9.332031 1.484375 -10.375 C 1.628906 -11.414062 1.789062 -12.609375 1.96875 -13.953125 C 2.1875 -15.335938 2.359375 -16.476562 2.484375 -17.375 C 2.617188 -18.269531 2.703125 -18.957031 2.734375 -19.4375 C 3.023438 -21.582031 3.242188 -22.96875 3.390625 -23.59375 C 3.679688 -24.832031 4.066406 -25.671875 4.546875 -26.109375 C 4.984375 -26.546875 5.691406 -26.816406 6.671875 -26.921875 C 7.441406 -27.035156 8.832031 -27.09375 10.84375 -27.09375 L 23.59375 -27.09375 Z M 12.75 -19.4375 C 12.644531 -19.4375 12.5 -19.4375 12.3125 -19.4375 C 12.132812 -19.4375 11.898438 -19.414062 11.609375 -19.375 C 11.347656 -19.375 11.179688 -19.359375 11.109375 -19.328125 C 11.003906 -19.328125 10.878906 -19.253906 10.734375 -19.109375 C 10.617188 -18.992188 10.507812 -18.773438 10.40625 -18.453125 C 10.40625 -18.304688 10.347656 -17.957031 10.234375 -17.40625 L 8.859375 -7.71875 L 19.875 -7.71875 C 20.269531 -7.789062 20.523438 -7.898438 20.640625 -8.046875 C 20.742188 -8.148438 20.832031 -8.332031 20.90625 -8.59375 C 20.976562 -8.695312 21.03125 -8.847656 21.0625 -9.046875 C 21.101562 -9.253906 21.144531 -9.488281 21.1875 -9.75 L 22.5 -19.4375 Z M 12.75 -19.4375 "/></g></g></g><g fill="#ff7b54" fill-opacity="1"><g transform="translate(133.993587, 52.798434)"><g><path d="M 11.71875 -27.09375 L 23.640625 -27.09375 C 24.628906 -27.09375 25.453125 -27.09375 26.109375 -27.09375 C 26.765625 -27.09375 27.257812 -27.070312 27.59375 -27.03125 C 28.789062 -27 29.609375 -26.78125 30.046875 -26.375 C 30.554688 -26.007812 30.8125 -25.265625 30.8125 -24.140625 C 30.8125 -23.992188 30.8125 -23.816406 30.8125 -23.609375 C 30.8125 -23.410156 30.796875 -23.203125 30.765625 -22.984375 C 30.722656 -22.660156 30.664062 -22.207031 30.59375 -21.625 C 30.519531 -21.039062 30.429688 -20.3125 30.328125 -19.4375 L 30 -17.40625 C 29.707031 -15.175781 29.46875 -13.71875 29.28125 -13.03125 C 29.0625 -12.007812 28.71875 -11.257812 28.25 -10.78125 C 27.738281 -10.3125 26.953125 -10.003906 25.890625 -9.859375 C 25.191406 -9.742188 23.878906 -9.6875 21.953125 -9.6875 L 9.640625 -9.6875 C 9.492188 -9.6875 9.347656 -9.613281 9.203125 -9.46875 C 9.117188 -9.394531 9.039062 -9.175781 8.96875 -8.8125 C 8.96875 -8.625 8.914062 -8.257812 8.8125 -7.71875 L 20.859375 -7.71875 C 23.003906 -7.71875 24.367188 -7.660156 24.953125 -7.546875 C 25.828125 -7.441406 26.429688 -7.171875 26.765625 -6.734375 C 27.171875 -6.328125 27.410156 -5.523438 27.484375 -4.328125 C 27.554688 -3.992188 27.59375 -3.546875 27.59375 -2.984375 C 27.59375 -2.421875 27.59375 -1.738281 27.59375 -0.9375 L 27.59375 0 L 6.890625 0 C 5.796875 0 4.894531 -0.0234375 4.1875 -0.078125 C 3.476562 -0.140625 2.921875 -0.1875 2.515625 -0.21875 C 1.753906 -0.4375 1.207031 -0.785156 0.875 -1.265625 C 0.65625 -1.703125 0.546875 -2.265625 0.546875 -2.953125 L 0.546875 -3.390625 C 0.585938 -4.046875 0.753906 -5.488281 1.046875 -7.71875 L 2.6875 -19.4375 L 3.34375 -23.375 C 3.59375 -24.644531 3.972656 -25.535156 4.484375 -26.046875 C 5.066406 -26.554688 5.832031 -26.867188 6.78125 -26.984375 C 7.1875 -27.054688 7.800781 -27.09375 8.625 -27.09375 C 9.445312 -27.09375 10.476562 -27.09375 11.71875 -27.09375 Z M 11.828125 -19.4375 C 11.273438 -19.4375 10.960938 -19.414062 10.890625 -19.375 C 10.816406 -19.34375 10.707031 -19.253906 10.5625 -19.109375 C 10.488281 -18.960938 10.414062 -18.796875 10.34375 -18.609375 C 10.34375 -18.460938 10.289062 -18.0625 10.1875 -17.40625 L 21.515625 -17.40625 C 21.804688 -17.4375 22.023438 -17.523438 22.171875 -17.671875 C 22.273438 -17.785156 22.328125 -17.953125 22.328125 -18.171875 C 22.398438 -18.429688 22.457031 -18.851562 22.5 -19.4375 Z M 11.828125 -19.4375 "/></g></g></g><path fill="#ff7b54" d="M 164.480469 55.875 L 319.46875 55.875 L 319.46875 61.265625 L 164.480469 61.265625 Z M 164.480469 55.875 " fill-opacity="1" fill-rule="nonzero"/><g fill="#ff7b54" fill-opacity="1"><g transform="translate(164.479156, 52.798434)"><g><path d="M 2.6875 -19.4375 C 3.007812 -21.769531 3.28125 -23.316406 3.5 -24.078125 C 3.757812 -25.097656 4.179688 -25.847656 4.765625 -26.328125 C 5.234375 -26.691406 5.960938 -26.925781 6.953125 -27.03125 C 7.347656 -27.101562 7.882812 -27.140625 8.5625 -27.140625 C 9.238281 -27.140625 10.070312 -27.140625 11.0625 -27.140625 L 31.359375 -27.140625 C 31.035156 -24.660156 30.726562 -23.003906 30.4375 -22.171875 C 30.101562 -21.148438 29.554688 -20.4375 28.796875 -20.03125 C 28.578125 -19.925781 28.328125 -19.84375 28.046875 -19.78125 C 27.773438 -19.726562 27.4375 -19.664062 27.03125 -19.59375 C 26.375 -19.488281 25.15625 -19.4375 23.375 -19.4375 L 12.640625 -19.4375 C 12.273438 -19.4375 11.957031 -19.4375 11.6875 -19.4375 C 11.414062 -19.4375 11.222656 -19.414062 11.109375 -19.375 C 10.859375 -19.375 10.675781 -19.285156 10.5625 -19.109375 C 10.488281 -19.035156 10.414062 -18.867188 10.34375 -18.609375 C 10.34375 -18.460938 10.289062 -18.078125 10.1875 -17.453125 L 22.21875 -17.453125 C 23.3125 -17.453125 24.210938 -17.453125 24.921875 -17.453125 C 25.640625 -17.453125 26.160156 -17.414062 26.484375 -17.34375 C 27.660156 -17.238281 28.445312 -16.945312 28.84375 -16.46875 C 29.207031 -16.070312 29.390625 -15.363281 29.390625 -14.34375 L 29.390625 -14.015625 C 29.390625 -13.679688 29.351562 -13.160156 29.28125 -12.453125 C 29.207031 -11.742188 29.097656 -10.84375 28.953125 -9.75 L 28.6875 -7.71875 C 28.539062 -6.507812 28.382812 -5.515625 28.21875 -4.734375 C 28.050781 -3.953125 27.914062 -3.359375 27.8125 -2.953125 C 27.59375 -2.191406 27.332031 -1.628906 27.03125 -1.265625 C 26.59375 -0.828125 25.972656 -0.5 25.171875 -0.28125 C 24.804688 -0.238281 24.164062 -0.191406 23.25 -0.140625 C 22.34375 -0.0859375 21.195312 -0.0625 19.8125 -0.0625 L 7.765625 -0.0625 C 6.347656 -0.0625 5.203125 -0.0859375 4.328125 -0.140625 C 3.453125 -0.191406 2.8125 -0.238281 2.40625 -0.28125 C 1.71875 -0.5 1.226562 -0.789062 0.9375 -1.15625 C 0.675781 -1.550781 0.546875 -2.171875 0.546875 -3.015625 C 0.546875 -3.742188 0.710938 -5.3125 1.046875 -7.71875 L 19.046875 -7.71875 C 19.378906 -7.71875 19.65625 -7.722656 19.875 -7.734375 C 20.09375 -7.753906 20.238281 -7.765625 20.3125 -7.765625 C 20.488281 -7.804688 20.648438 -7.898438 20.796875 -8.046875 C 20.941406 -8.265625 21.015625 -8.484375 21.015625 -8.703125 C 21.085938 -8.921875 21.144531 -9.269531 21.1875 -9.75 L 7.765625 -9.75 C 7.035156 -9.75 6.394531 -9.753906 5.84375 -9.765625 C 5.300781 -9.785156 4.867188 -9.816406 4.546875 -9.859375 C 3.523438 -9.960938 2.773438 -10.21875 2.296875 -10.625 C 1.929688 -11.0625 1.75 -11.679688 1.75 -12.484375 L 1.75 -13.140625 C 1.820312 -13.503906 1.910156 -14.039062 2.015625 -14.75 C 2.128906 -15.457031 2.257812 -16.359375 2.40625 -17.453125 Z M 2.6875 -19.4375 "/></g></g></g><g fill="#ff7b54" fill-opacity="1"><g transform="translate(195.563585, 52.798434)"><g><path d="M 11.71875 -27.09375 L 23.640625 -27.09375 C 24.628906 -27.09375 25.453125 -27.09375 26.109375 -27.09375 C 26.765625 -27.09375 27.257812 -27.070312 27.59375 -27.03125 C 28.789062 -27 29.609375 -26.78125 30.046875 -26.375 C 30.554688 -26.007812 30.8125 -25.265625 30.8125 -24.140625 C 30.8125 -23.992188 30.8125 -23.816406 30.8125 -23.609375 C 30.8125 -23.410156 30.796875 -23.203125 30.765625 -22.984375 C 30.722656 -22.660156 30.664062 -22.207031 30.59375 -21.625 C 30.519531 -21.039062 30.429688 -20.3125 30.328125 -19.4375 L 30 -17.40625 C 29.707031 -15.175781 29.46875 -13.71875 29.28125 -13.03125 C 29.0625 -12.007812 28.71875 -11.257812 28.25 -10.78125 C 27.738281 -10.3125 26.953125 -10.003906 25.890625 -9.859375 C 25.191406 -9.742188 23.878906 -9.6875 21.953125 -9.6875 L 9.640625 -9.6875 C 9.492188 -9.6875 9.347656 -9.613281 9.203125 -9.46875 C 9.117188 -9.394531 9.039062 -9.175781 8.96875 -8.8125 C 8.96875 -8.625 8.914062 -8.257812 8.8125 -7.71875 L 20.859375 -7.71875 C 23.003906 -7.71875 24.367188 -7.660156 24.953125 -7.546875 C 25.828125 -7.441406 26.429688 -7.171875 26.765625 -6.734375 C 27.171875 -6.328125 27.410156 -5.523438 27.484375 -4.328125 C 27.554688 -3.992188 27.59375 -3.546875 27.59375 -2.984375 C 27.59375 -2.421875 27.59375 -1.738281 27.59375 -0.9375 L 27.59375 0 L 6.890625 0 C 5.796875 0 4.894531 -0.0234375 4.1875 -0.078125 C 3.476562 -0.140625 2.921875 -0.1875 2.515625 -0.21875 C 1.753906 -0.4375 1.207031 -0.785156 0.875 -1.265625 C 0.65625 -1.703125 0.546875 -2.265625 0.546875 -2.953125 L 0.546875 -3.390625 C 0.585938 -4.046875 0.753906 -5.488281 1.046875 -7.71875 L 2.6875 -19.4375 L 3.34375 -23.375 C 3.59375 -24.644531 3.972656 -25.535156 4.484375 -26.046875 C 5.066406 -26.554688 5.832031 -26.867188 6.78125 -26.984375 C 7.1875 -27.054688 7.800781 -27.09375 8.625 -27.09375 C 9.445312 -27.09375 10.476562 -27.09375 11.71875 -27.09375 Z M 11.828125 -19.4375 C 11.273438 -19.4375 10.960938 -19.414062 10.890625 -19.375 C 10.816406 -19.34375 10.707031 -19.253906 10.5625 -19.109375 C 10.488281 -18.960938 10.414062 -18.796875 10.34375 -18.609375 C 10.34375 -18.460938 10.289062 -18.0625 10.1875 -17.40625 L 21.515625 -17.40625 C 21.804688 -17.4375 22.023438 -17.523438 22.171875 -17.671875 C 22.273438 -17.785156 22.328125 -17.953125 22.328125 -18.171875 C 22.398438 -18.429688 22.457031 -18.851562 22.5 -19.4375 Z M 11.828125 -19.4375 "/></g></g></g><g fill="#ff7b54" fill-opacity="1"><g transform="translate(226.046032, 52.798434)"><g><path d="M 3.28125 -19.375 C 3.425781 -20.4375 3.550781 -21.300781 3.65625 -21.96875 C 3.769531 -22.644531 3.847656 -23.148438 3.890625 -23.484375 C 4.109375 -24.609375 4.414062 -25.390625 4.8125 -25.828125 C 5.25 -26.453125 5.976562 -26.816406 7 -26.921875 C 7.726562 -27.035156 8.878906 -27.09375 10.453125 -27.09375 L 25.828125 -27.09375 C 26.335938 -27.09375 26.785156 -27.09375 27.171875 -27.09375 C 27.554688 -27.09375 27.878906 -27.070312 28.140625 -27.03125 C 29.265625 -27 30.066406 -26.800781 30.546875 -26.4375 C 31.085938 -26.070312 31.359375 -25.285156 31.359375 -24.078125 C 31.359375 -23.347656 31.195312 -21.78125 30.875 -19.375 L 30.59375 -17.40625 L 29.5 -9.6875 L 29.234375 -7.65625 C 29.085938 -6.53125 28.945312 -5.59375 28.8125 -4.84375 C 28.6875 -4.09375 28.570312 -3.535156 28.46875 -3.171875 C 28.25 -2.367188 27.972656 -1.734375 27.640625 -1.265625 C 27.203125 -0.785156 26.523438 -0.4375 25.609375 -0.21875 C 25.242188 -0.1875 24.625 -0.140625 23.75 -0.078125 C 22.875 -0.0234375 21.742188 0 20.359375 0 L 21.453125 -7.65625 L 21.734375 -9.6875 L 22.828125 -17.40625 L 23.09375 -19.375 L 13.078125 -19.375 C 12.929688 -19.414062 12.800781 -19.4375 12.6875 -19.4375 C 12.582031 -19.4375 12.476562 -19.4375 12.375 -19.4375 C 12.113281 -19.4375 11.945312 -19.414062 11.875 -19.375 C 11.625 -19.375 11.441406 -19.320312 11.328125 -19.21875 C 11.179688 -19.070312 11.054688 -18.851562 10.953125 -18.5625 C 10.953125 -18.414062 10.894531 -18.03125 10.78125 -17.40625 L 9.6875 -9.6875 L 9.421875 -7.65625 C 9.160156 -5.726562 8.9375 -4.398438 8.75 -3.671875 C 8.644531 -3.085938 8.5 -2.59375 8.3125 -2.1875 C 8.132812 -1.789062 7.9375 -1.445312 7.71875 -1.15625 C 7.238281 -0.601562 6.398438 -0.253906 5.203125 -0.109375 C 4.835938 -0.078125 4.289062 -0.0507812 3.5625 -0.03125 C 2.832031 -0.0078125 1.9375 0 0.875 0 L -1.640625 0 C -0.910156 -0.625 -0.457031 -1.023438 -0.28125 -1.203125 C 0.164062 -1.566406 0.460938 -1.859375 0.609375 -2.078125 C 0.679688 -2.191406 0.734375 -2.289062 0.765625 -2.375 C 0.804688 -2.46875 0.84375 -2.570312 0.875 -2.6875 C 0.945312 -2.863281 1.019531 -3.242188 1.09375 -3.828125 L 1.640625 -7.65625 L 1.921875 -9.6875 L 3.015625 -17.40625 Z M 3.28125 -19.375 "/></g></g></g><g fill="#ff7b54" fill-opacity="1"><g transform="translate(257.896626, 52.798434)"><g><path d="M 2.6875 -19.4375 C 3.007812 -21.769531 3.28125 -23.316406 3.5 -24.078125 C 3.757812 -25.097656 4.179688 -25.847656 4.765625 -26.328125 C 5.234375 -26.691406 5.960938 -26.925781 6.953125 -27.03125 C 7.347656 -27.101562 7.882812 -27.140625 8.5625 -27.140625 C 9.238281 -27.140625 10.070312 -27.140625 11.0625 -27.140625 L 31.359375 -27.140625 C 31.035156 -24.660156 30.726562 -23.003906 30.4375 -22.171875 C 30.101562 -21.148438 29.554688 -20.4375 28.796875 -20.03125 C 28.578125 -19.925781 28.328125 -19.84375 28.046875 -19.78125 C 27.773438 -19.726562 27.4375 -19.664062 27.03125 -19.59375 C 26.375 -19.488281 25.15625 -19.4375 23.375 -19.4375 L 12.640625 -19.4375 C 12.273438 -19.4375 11.957031 -19.4375 11.6875 -19.4375 C 11.414062 -19.4375 11.222656 -19.414062 11.109375 -19.375 C 10.859375 -19.375 10.675781 -19.285156 10.5625 -19.109375 C 10.488281 -19.035156 10.414062 -18.867188 10.34375 -18.609375 C 10.34375 -18.460938 10.289062 -18.078125 10.1875 -17.453125 L 22.21875 -17.453125 C 23.3125 -17.453125 24.210938 -17.453125 24.921875 -17.453125 C 25.640625 -17.453125 26.160156 -17.414062 26.484375 -17.34375 C 27.660156 -17.238281 28.445312 -16.945312 28.84375 -16.46875 C 29.207031 -16.070312 29.390625 -15.363281 29.390625 -14.34375 L 29.390625 -14.015625 C 29.390625 -13.679688 29.351562 -13.160156 29.28125 -12.453125 C 29.207031 -11.742188 29.097656 -10.84375 28.953125 -9.75 L 28.6875 -7.71875 C 28.539062 -6.507812 28.382812 -5.515625 28.21875 -4.734375 C 28.050781 -3.953125 27.914062 -3.359375 27.8125 -2.953125 C 27.59375 -2.191406 27.332031 -1.628906 27.03125 -1.265625 C 26.59375 -0.828125 25.972656 -0.5 25.171875 -0.28125 C 24.804688 -0.238281 24.164062 -0.191406 23.25 -0.140625 C 22.34375 -0.0859375 21.195312 -0.0625 19.8125 -0.0625 L 7.765625 -0.0625 C 6.347656 -0.0625 5.203125 -0.0859375 4.328125 -0.140625 C 3.453125 -0.191406 2.8125 -0.238281 2.40625 -0.28125 C 1.71875 -0.5 1.226562 -0.789062 0.9375 -1.15625 C 0.675781 -1.550781 0.546875 -2.171875 0.546875 -3.015625 C 0.546875 -3.742188 0.710938 -5.3125 1.046875 -7.71875 L 19.046875 -7.71875 C 19.378906 -7.71875 19.65625 -7.722656 19.875 -7.734375 C 20.09375 -7.753906 20.238281 -7.765625 20.3125 -7.765625 C 20.488281 -7.804688 20.648438 -7.898438 20.796875 -8.046875 C 20.941406 -8.265625 21.015625 -8.484375 21.015625 -8.703125 C 21.085938 -8.921875 21.144531 -9.269531 21.1875 -9.75 L 7.765625 -9.75 C 7.035156 -9.75 6.394531 -9.753906 5.84375 -9.765625 C 5.300781 -9.785156 4.867188 -9.816406 4.546875 -9.859375 C 3.523438 -9.960938 2.773438 -10.21875 2.296875 -10.625 C 1.929688 -11.0625 1.75 -11.679688 1.75 -12.484375 L 1.75 -13.140625 C 1.820312 -13.503906 1.910156 -14.039062 2.015625 -14.75 C 2.128906 -15.457031 2.257812 -16.359375 2.40625 -17.453125 Z M 2.6875 -19.4375 "/></g></g></g><g fill="#ff7b54" fill-opacity="1"><g transform="translate(288.981055, 52.798434)"><g><path d="M 11.71875 -27.09375 L 23.640625 -27.09375 C 24.628906 -27.09375 25.453125 -27.09375 26.109375 -27.09375 C 26.765625 -27.09375 27.257812 -27.070312 27.59375 -27.03125 C 28.789062 -27 29.609375 -26.78125 30.046875 -26.375 C 30.554688 -26.007812 30.8125 -25.265625 30.8125 -24.140625 C 30.8125 -23.992188 30.8125 -23.816406 30.8125 -23.609375 C 30.8125 -23.410156 30.796875 -23.203125 30.765625 -22.984375 C 30.722656 -22.660156 30.664062 -22.207031 30.59375 -21.625 C 30.519531 -21.039062 30.429688 -20.3125 30.328125 -19.4375 L 30 -17.40625 C 29.707031 -15.175781 29.46875 -13.71875 29.28125 -13.03125 C 29.0625 -12.007812 28.71875 -11.257812 28.25 -10.78125 C 27.738281 -10.3125 26.953125 -10.003906 25.890625 -9.859375 C 25.191406 -9.742188 23.878906 -9.6875 21.953125 -9.6875 L 9.640625 -9.6875 C 9.492188 -9.6875 9.347656 -9.613281 9.203125 -9.46875 C 9.117188 -9.394531 9.039062 -9.175781 8.96875 -8.8125 C 8.96875 -8.625 8.914062 -8.257812 8.8125 -7.71875 L 20.859375 -7.71875 C 23.003906 -7.71875 24.367188 -7.660156 24.953125 -7.546875 C 25.828125 -7.441406 26.429688 -7.171875 26.765625 -6.734375 C 27.171875 -6.328125 27.410156 -5.523438 27.484375 -4.328125 C 27.554688 -3.992188 27.59375 -3.546875 27.59375 -2.984375 C 27.59375 -2.421875 27.59375 -1.738281 27.59375 -0.9375 L 27.59375 0 L 6.890625 0 C 5.796875 0 4.894531 -0.0234375 4.1875 -0.078125 C 3.476562 -0.140625 2.921875 -0.1875 2.515625 -0.21875 C 1.753906 -0.4375 1.207031 -0.785156 0.875 -1.265625 C 0.65625 -1.703125 0.546875 -2.265625 0.546875 -2.953125 L 0.546875 -3.390625 C 0.585938 -4.046875 0.753906 -5.488281 1.046875 -7.71875 L 2.6875 -19.4375 L 3.34375 -23.375 C 3.59375 -24.644531 3.972656 -25.535156 4.484375 -26.046875 C 5.066406 -26.554688 5.832031 -26.867188 6.78125 -26.984375 C 7.1875 -27.054688 7.800781 -27.09375 8.625 -27.09375 C 9.445312 -27.09375 10.476562 -27.09375 11.71875 -27.09375 Z M 11.828125 -19.4375 C 11.273438 -19.4375 10.960938 -19.414062 10.890625 -19.375 C 10.816406 -19.34375 10.707031 -19.253906 10.5625 -19.109375 C 10.488281 -18.960938 10.414062 -18.796875 10.34375 -18.609375 C 10.34375 -18.460938 10.289062 -18.0625 10.1875 -17.40625 L 21.515625 -17.40625 C 21.804688 -17.4375 22.023438 -17.523438 22.171875 -17.671875 C 22.273438 -17.785156 22.328125 -17.953125 22.328125 -18.171875 C 22.398438 -18.429688 22.457031 -18.851562 22.5 -19.4375 Z M 11.828125 -19.4375 "/></g></g></g><g fill="#ff7b54" fill-opacity="1"><g transform="translate(319.470515, 52.798434)"><g/></g></g><g fill="#ff7b54" fill-opacity="1"><g transform="translate(335.888353, 52.798434)"><g><path d="M 6.015625 -35.078125 C 6.203125 -36.140625 6.359375 -37.015625 6.484375 -37.703125 C 6.609375 -38.398438 6.691406 -38.914062 6.734375 -39.25 C 7.054688 -40.488281 7.4375 -41.328125 7.875 -41.765625 C 8.351562 -42.234375 8.976562 -42.523438 9.75 -42.640625 C 10.363281 -42.785156 11.53125 -42.859375 13.25 -42.859375 L 14.890625 -42.859375 L 13.796875 -35.078125 L 12.53125 -25.828125 L 10.734375 -13.1875 L 9.421875 -3.671875 C 9.273438 -2.648438 9.144531 -1.789062 9.03125 -1.09375 C 8.914062 -0.40625 8.804688 0.101562 8.703125 0.4375 C 8.484375 1.425781 8.207031 2.140625 7.875 2.578125 C 7.476562 3.191406 6.820312 3.609375 5.90625 3.828125 C 5.539062 3.867188 4.898438 3.914062 3.984375 3.96875 C 3.078125 4.019531 1.929688 4.046875 0.546875 4.046875 L 1.640625 -3.609375 L 3.34375 -16.03125 L 4.765625 -26.109375 Z M 6.015625 -35.078125 "/></g></g></g><g fill="#ff7b54" fill-opacity="1"><g transform="translate(351.32112, 52.798434)"><g><path d="M 0.546875 -3.28125 C 0.765625 -4.5625 0.945312 -5.609375 1.09375 -6.421875 C 1.238281 -7.242188 1.347656 -7.859375 1.421875 -8.265625 C 1.566406 -8.847656 1.703125 -9.359375 1.828125 -9.796875 C 1.960938 -10.234375 2.082031 -10.582031 2.1875 -10.84375 C 2.59375 -11.71875 3.160156 -12.351562 3.890625 -12.75 C 4.140625 -12.9375 4.507812 -13.128906 5 -13.328125 C 5.5 -13.523438 6.113281 -13.753906 6.84375 -14.015625 L 14.5625 -17.078125 L 7.875 -20.25 C 7.289062 -20.582031 6.804688 -20.863281 6.421875 -21.09375 C 6.046875 -21.332031 5.75 -21.523438 5.53125 -21.671875 C 5.050781 -22.035156 4.6875 -22.363281 4.4375 -22.65625 C 3.957031 -23.238281 3.71875 -24.023438 3.71875 -25.015625 C 3.71875 -25.890625 3.9375 -27.710938 4.375 -30.484375 L 13.140625 -26.265625 L 19.21875 -23.375 C 20.238281 -22.96875 20.984375 -22.582031 21.453125 -22.21875 C 22.109375 -21.894531 22.546875 -21.457031 22.765625 -20.90625 C 22.984375 -20.46875 23.09375 -19.847656 23.09375 -19.046875 C 23.09375 -18.578125 23.039062 -17.898438 22.9375 -17.015625 C 22.863281 -16.429688 22.789062 -15.929688 22.71875 -15.515625 C 22.644531 -15.097656 22.570312 -14.78125 22.5 -14.5625 C 22.3125 -13.863281 22.070312 -13.316406 21.78125 -12.921875 C 21.53125 -12.484375 21.09375 -12.046875 20.46875 -11.609375 C 20.175781 -11.390625 19.789062 -11.140625 19.3125 -10.859375 C 18.84375 -10.585938 18.296875 -10.304688 17.671875 -10.015625 Z M 0.546875 -3.28125 "/></g></g></g></svg>