<svg xmlns="http://www.w3.org/2000/svg" xmlns:xlink="http://www.w3.org/1999/xlink" width="1920" zoomAndPan="magnify" viewBox="0 0 1440 809.999993" height="1080" preserveAspectRatio="xMidYMid meet" version="1.0"><defs><clipPath id="2ea6c5bcb7"><path d="M 0 640 L 16.503906 640 L 16.503906 810 L 0 810 Z M 0 640 " clip-rule="nonzero"/></clipPath><clipPath id="3dd0d2c1a7"><path d="M 0 316 L 8.25 316 L 8.25 639.984375 L 0 639.984375 Z M 0 316 " clip-rule="nonzero"/></clipPath></defs><g clip-path="url(#2ea6c5bcb7)"><path fill="#312c51" d="M 16.449219 640.023438 L 16.449219 641.257812 L 15.214844 640.023438 Z M 3.308594 640.023438 L 0.863281 640.023438 L 16.449219 655.609375 L 16.449219 653.164062 Z M -11.042969 640.023438 L -13.496094 640.023438 L 16.449219 669.984375 L 16.449219 667.53125 Z M -25.417969 640.023438 L -27.863281 640.023438 L 16.449219 684.335938 L 16.449219 681.890625 Z M -39.777344 640.023438 L -42.230469 640.023438 L 16.457031 698.695312 L 16.457031 696.242188 Z M -54.136719 640.023438 L -56.582031 640.023438 L 16.457031 713.0625 L 16.457031 710.617188 L -54.144531 640.023438 Z M -68.488281 640.023438 L -70.957031 640.023438 L 16.457031 727.4375 L 16.457031 724.96875 L -68.496094 640.023438 Z M -82.859375 640.023438 L -85.308594 640.023438 L 16.457031 741.789062 L 16.457031 739.34375 L -82.867188 640.023438 Z M -97.214844 640.023438 L -99.683594 640.023438 L 16.457031 756.164062 L 16.457031 753.695312 L -97.21875 640.023438 Z M -111.585938 640.023438 L -114.035156 640.023438 L 16.457031 770.515625 L 16.457031 768.070312 L -111.59375 640.023438 Z M -125.945312 640.023438 L -128.402344 640.023438 L 16.464844 784.890625 L 16.464844 782.421875 L -125.953125 640.023438 Z M -140.304688 640.023438 L -142.753906 640.023438 L 16.464844 799.242188 L 16.464844 796.796875 L -140.320312 640.023438 Z M -154.664062 640.023438 L -157.121094 640.023438 L 16.472656 813.617188 L 16.472656 811.171875 L -154.679688 640.023438 Z M -169.023438 640.023438 L -171.472656 640.023438 L 16.472656 827.96875 L 16.472656 825.523438 L -169.046875 640.023438 Z M -183.382812 640.023438 L -185.839844 640.023438 L 16.480469 842.34375 L 16.480469 839.890625 L -183.40625 640.023438 Z M -197.742188 640.023438 L -200.191406 640.023438 L 16.480469 856.695312 L 16.480469 854.25 L -197.773438 640.023438 Z M -212.09375 640.023438 L -214.566406 640.023438 L 16.480469 871.070312 L 16.480469 868.601562 L -212.125 640.023438 Z M -226.46875 640.023438 L -228.917969 640.023438 L 16.480469 885.421875 L 16.480469 882.976562 L -226.5 640.023438 Z M -240.820312 640.023438 L -243.292969 640.023438 L 16.480469 899.796875 L 16.480469 897.339844 L -240.851562 640.023438 Z M -255.195312 640.023438 L -257.644531 640.023438 L 16.480469 914.148438 L 16.480469 911.699219 L -255.226562 640.023438 Z M -269.570312 640.023438 L -272.015625 640.023438 L 16.480469 928.523438 L 16.480469 926.050781 L -269.601562 640.023438 Z M -283.921875 640.023438 L -286.371094 640.023438 L 16.480469 942.875 L 16.480469 940.425781 L -283.953125 640.023438 Z M -298.3125 640.023438 L -300.765625 640.023438 L 16.457031 957.25 L 16.457031 954.800781 Z M -307.496094 645.207031 L -307.496094 647.652344 L 8.820312 963.972656 L 11.265625 963.972656 Z M -307.496094 659.582031 L -307.496094 662.027344 L -5.546875 963.972656 L -3.101562 963.972656 Z M -307.496094 673.933594 L -307.496094 676.378906 L -19.898438 963.976562 L -17.453125 963.976562 Z M -307.496094 688.292969 L -307.496094 690.746094 L -34.273438 963.972656 L -31.820312 963.972656 Z M -307.496094 702.652344 L -307.496094 705.097656 L -48.625 963.972656 L -46.179688 963.972656 L -307.496094 702.660156 Z M -307.496094 717.003906 L -307.496094 719.472656 L -63 963.972656 L -60.542969 963.972656 L -307.496094 717.011719 Z M -307.496094 731.378906 L -307.496094 733.824219 L -77.351562 963.972656 L -74.902344 963.972656 L -307.496094 731.386719 Z M -307.496094 745.753906 L -307.496094 748.199219 L -91.726562 963.972656 L -89.269531 963.972656 L -307.496094 745.761719 Z M -307.496094 760.105469 L -307.496094 762.550781 L -106.078125 963.972656 L -103.628906 963.972656 Z M -307.496094 774.480469 L -307.496094 776.925781 L -120.453125 963.972656 L -118.003906 963.972656 Z M -307.496094 788.832031 L -307.496094 791.277344 L -134.804688 963.972656 L -132.355469 963.972656 Z M -307.496094 803.207031 L -307.496094 805.652344 L -149.179688 963.972656 L -146.730469 963.972656 Z M -307.496094 817.558594 L -307.496094 820.003906 L -163.53125 963.972656 L -161.082031 963.972656 Z M -307.496094 831.917969 L -307.496094 834.371094 L -177.90625 963.964844 L -175.457031 963.964844 L -307.496094 831.925781 Z M -307.496094 846.277344 L -307.496094 848.722656 L -192.257812 963.964844 L -189.808594 963.964844 L -307.496094 846.285156 Z M -307.496094 860.636719 L -307.496094 863.089844 L -206.628906 963.957031 L -204.175781 963.957031 L -307.496094 860.652344 Z M -307.496094 874.996094 L -307.496094 877.441406 L -220.980469 963.957031 L -218.535156 963.957031 L -307.496094 875.011719 Z M -307.496094 889.371094 L -307.496094 891.816406 L -235.355469 963.957031 L -232.902344 963.957031 L -307.496094 889.382812 Z M -307.496094 903.722656 L -307.496094 906.167969 L -249.707031 963.957031 L -247.261719 963.957031 L -307.496094 903.734375 Z M -307.496094 918.09375 L -307.496094 920.542969 L -264.082031 963.957031 L -261.636719 963.957031 L -307.496094 918.109375 Z M -307.496094 932.449219 L -307.496094 934.894531 L -278.433594 963.957031 L -275.988281 963.957031 L -307.496094 932.460938 Z M -307.496094 946.820312 L -307.496094 949.269531 L -292.808594 963.957031 L -290.363281 963.957031 L -307.496094 946.835938 Z M -307.496094 961.171875 L -307.496094 963.621094 L -307.160156 963.957031 L -304.714844 963.957031 Z M -307.496094 961.171875 " fill-opacity="1" fill-rule="nonzero"/></g><g clip-path="url(#3dd0d2c1a7)"><path fill="#312c51" d="M 8.195312 316.023438 L 8.195312 317.257812 L 6.960938 316.023438 Z M -4.941406 316.023438 L -7.390625 316.023438 L 8.195312 331.609375 L 8.195312 329.164062 Z M -19.296875 316.023438 L -21.75 316.023438 L 8.195312 345.984375 L 8.195312 343.53125 Z M -33.667969 316.023438 L -36.117188 316.023438 L 8.195312 360.335938 L 8.195312 357.890625 Z M -48.027344 316.023438 L -50.484375 316.023438 L 8.203125 374.695312 L 8.203125 372.242188 Z M -62.386719 316.023438 L -64.835938 316.023438 L 8.203125 389.0625 L 8.203125 386.617188 L -62.394531 316.023438 Z M -76.738281 316.023438 L -79.210938 316.023438 L 8.203125 403.4375 L 8.203125 400.96875 L -76.746094 316.023438 Z M -91.113281 316.023438 L -93.5625 316.023438 L 8.203125 417.789062 L 8.203125 415.34375 L -91.121094 316.023438 Z M -105.464844 316.023438 L -107.9375 316.023438 L 8.203125 432.164062 L 8.203125 429.695312 L -105.472656 316.023438 Z M -119.839844 316.023438 L -122.289062 316.023438 L 8.203125 446.515625 L 8.203125 444.070312 L -119.847656 316.023438 Z M -134.199219 316.023438 L -136.65625 316.023438 L 8.210938 460.890625 L 8.210938 458.421875 L -134.207031 316.023438 Z M -148.558594 316.023438 L -151.007812 316.023438 L 8.210938 475.242188 L 8.210938 472.796875 L -148.574219 316.023438 Z M -162.917969 316.023438 L -165.375 316.023438 L 8.21875 489.617188 L 8.21875 487.171875 L -162.933594 316.023438 Z M -177.277344 316.023438 L -179.726562 316.023438 L 8.21875 503.96875 L 8.21875 501.523438 L -177.300781 316.023438 Z M -191.636719 316.023438 L -194.09375 316.023438 L 8.226562 518.34375 L 8.226562 515.890625 L -191.660156 316.023438 Z M -205.996094 316.023438 L -208.445312 316.023438 L 8.226562 532.695312 L 8.226562 530.25 L -206.027344 316.023438 Z M -220.347656 316.023438 L -222.816406 316.023438 L 8.226562 547.070312 L 8.226562 544.601562 L -220.378906 316.023438 Z M -234.722656 316.023438 L -237.167969 316.023438 L 8.226562 561.421875 L 8.226562 558.976562 L -234.753906 316.023438 Z M -249.074219 316.023438 L -251.542969 316.023438 L 8.226562 575.796875 L 8.226562 573.339844 L -249.105469 316.023438 Z M -263.449219 316.023438 L -265.894531 316.023438 L 8.226562 590.148438 L 8.226562 587.699219 L -263.480469 316.023438 Z M -277.824219 316.023438 L -280.269531 316.023438 L 8.226562 604.523438 L 8.226562 602.050781 L -277.855469 316.023438 Z M -292.175781 316.023438 L -294.621094 316.023438 L 8.226562 618.875 L 8.226562 616.425781 L -292.207031 316.023438 Z M -306.566406 316.023438 L -309.019531 316.023438 L 8.203125 633.25 L 8.203125 630.800781 Z M -315.75 321.207031 L -315.75 323.652344 L 0.566406 639.972656 L 3.015625 639.972656 Z M -315.75 335.582031 L -315.75 338.027344 L -13.800781 639.972656 L -11.351562 639.972656 Z M -315.75 349.933594 L -315.75 352.378906 L -28.152344 639.976562 L -25.703125 639.976562 Z M -315.75 364.292969 L -315.75 366.746094 L -42.527344 639.972656 L -40.070312 639.972656 Z M -315.75 378.652344 L -315.75 381.097656 L -56.878906 639.972656 L -54.429688 639.972656 L -315.75 378.660156 Z M -315.75 393.003906 L -315.75 395.472656 L -71.253906 639.972656 L -68.796875 639.972656 L -315.75 393.011719 Z M -315.75 407.378906 L -315.75 409.824219 L -85.605469 639.972656 L -83.15625 639.972656 L -315.75 407.386719 Z M -315.75 421.753906 L -315.75 424.199219 L -99.980469 639.972656 L -97.523438 639.972656 L -315.75 421.761719 Z M -315.75 436.105469 L -315.75 438.550781 L -114.332031 639.972656 L -111.882812 639.972656 Z M -315.75 450.480469 L -315.75 452.925781 L -128.703125 639.972656 L -126.257812 639.972656 Z M -315.75 464.832031 L -315.75 467.277344 L -143.058594 639.972656 L -140.609375 639.972656 Z M -315.75 479.207031 L -315.75 481.652344 L -157.429688 639.972656 L -154.984375 639.972656 Z M -315.75 493.558594 L -315.75 496.003906 L -171.78125 639.972656 L -169.335938 639.972656 Z M -315.75 507.917969 L -315.75 510.371094 L -186.15625 639.964844 L -183.710938 639.964844 L -315.75 507.925781 Z M -315.75 522.277344 L -315.75 524.722656 L -200.507812 639.964844 L -198.0625 639.964844 L -315.75 522.285156 Z M -315.75 536.636719 L -315.75 539.089844 L -214.882812 639.957031 L -212.429688 639.957031 L -315.75 536.652344 Z M -315.75 550.996094 L -315.75 553.441406 L -229.234375 639.957031 L -226.789062 639.957031 L -315.75 551.011719 Z M -315.75 565.371094 L -315.75 567.816406 L -243.609375 639.957031 L -241.15625 639.957031 L -315.75 565.382812 Z M -315.75 579.722656 L -315.75 582.167969 L -257.960938 639.957031 L -255.515625 639.957031 L -315.75 579.734375 Z M -315.75 594.09375 L -315.75 596.542969 L -272.335938 639.957031 L -269.890625 639.957031 L -315.75 594.109375 Z M -315.75 608.449219 L -315.75 610.894531 L -286.6875 639.957031 L -284.242188 639.957031 L -315.75 608.460938 Z M -315.75 622.820312 L -315.75 625.269531 L -301.0625 639.957031 L -298.617188 639.957031 L -315.75 622.835938 Z M -315.75 637.171875 L -315.75 639.621094 L -315.414062 639.957031 L -312.96875 639.957031 Z M -315.75 637.171875 " fill-opacity="1" fill-rule="nonzero"/></g><path fill="#312c51" d="M 1566.105469 -531.734375 L 1566.105469 -524.59375 L 1558.964844 -531.734375 Z M 1490.109375 -531.734375 L 1475.957031 -531.734375 L 1566.105469 -441.589844 L 1566.105469 -455.738281 Z M 1407.101562 -531.734375 L 1392.90625 -531.734375 L 1566.105469 -358.449219 L 1566.105469 -372.644531 Z M 1323.964844 -531.734375 L 1309.8125 -531.734375 L 1566.105469 -275.445312 L 1566.105469 -289.59375 Z M 1240.914062 -531.734375 L 1226.71875 -531.734375 L 1566.148438 -192.394531 L 1566.148438 -206.589844 Z M 1157.863281 -531.734375 L 1143.714844 -531.734375 L 1566.148438 -109.300781 L 1566.148438 -123.453125 L 1157.820312 -531.734375 Z M 1074.859375 -531.734375 L 1060.578125 -531.734375 L 1566.148438 -26.164062 L 1566.148438 -40.445312 L 1074.816406 -531.734375 Z M 991.722656 -531.734375 L 977.570312 -531.734375 L 1566.148438 56.84375 L 1566.148438 42.691406 L 991.675781 -531.734375 Z M 908.714844 -531.734375 L 894.433594 -531.734375 L 1566.148438 139.980469 L 1566.148438 125.699219 L 908.671875 -531.734375 Z M 825.578125 -531.734375 L 811.425781 -531.734375 L 1566.148438 222.984375 L 1566.148438 208.835938 L 825.535156 -531.734375 Z M 742.527344 -531.734375 L 728.332031 -531.734375 L 1566.191406 306.125 L 1566.191406 291.839844 L 742.484375 -531.734375 Z M 659.476562 -531.734375 L 645.328125 -531.734375 L 1566.191406 389.128906 L 1566.191406 374.980469 L 659.390625 -531.734375 Z M 576.429688 -531.734375 L 562.234375 -531.734375 L 1566.238281 472.265625 L 1566.238281 458.117188 L 576.339844 -531.734375 Z M 493.378906 -531.734375 L 479.226562 -531.734375 L 1566.238281 555.273438 L 1566.238281 541.121094 L 493.246094 -531.734375 Z M 410.328125 -531.734375 L 396.132812 -531.734375 L 1566.28125 638.410156 L 1566.28125 624.21875 L 410.195312 -531.734375 Z M 327.277344 -531.734375 L 313.128906 -531.734375 L 1566.28125 721.417969 L 1566.28125 707.265625 L 327.101562 -531.734375 Z M 244.273438 -531.734375 L 229.992188 -531.734375 L 1566.28125 804.554688 L 1566.28125 790.273438 L 244.097656 -531.734375 Z M 161.136719 -531.734375 L 146.984375 -531.734375 L 1566.28125 887.558594 L 1566.28125 873.410156 L 160.957031 -531.734375 Z M 78.128906 -531.734375 L 63.847656 -531.734375 L 1566.28125 970.699219 L 1566.28125 956.503906 L 77.953125 -531.734375 Z M -5.007812 -531.734375 L -19.160156 -531.734375 L 1566.28125 1053.703125 L 1566.28125 1039.554688 L -5.183594 -531.734375 Z M -88.144531 -531.734375 L -102.296875 -531.734375 L 1566.28125 1136.84375 L 1566.28125 1122.558594 L -88.324219 -531.734375 Z M -171.152344 -531.734375 L -185.300781 -531.734375 L 1566.28125 1219.847656 L 1566.28125 1205.699219 L -171.328125 -531.734375 Z M -254.378906 -531.734375 L -268.574219 -531.734375 L 1566.148438 1302.984375 L 1566.148438 1288.835938 Z M -307.496094 -501.761719 L -307.496094 -487.609375 L 1521.980469 1341.867188 L 1536.128906 1341.867188 Z M -307.496094 -418.621094 L -307.496094 -404.472656 L 1438.886719 1341.867188 L 1453.035156 1341.867188 Z M -307.496094 -335.617188 L -307.496094 -321.464844 L 1355.878906 1341.910156 L 1370.03125 1341.910156 Z M -307.496094 -252.566406 L -307.496094 -238.371094 L 1272.742188 1341.867188 L 1286.9375 1341.867188 Z M -307.496094 -169.515625 L -307.496094 -155.367188 L 1189.734375 1341.867188 L 1203.886719 1341.867188 L -307.496094 -169.472656 Z M -307.496094 -86.511719 L -307.496094 -72.230469 L 1106.597656 1341.867188 L 1120.792969 1341.867188 L -307.496094 -86.46875 Z M -307.496094 -3.375 L -307.496094 10.777344 L 1023.59375 1341.867188 L 1037.742188 1341.867188 L -307.496094 -3.328125 Z M -307.496094 79.765625 L -307.496094 93.914062 L 940.453125 1341.867188 L 954.648438 1341.867188 L -307.496094 79.808594 Z M -307.496094 162.769531 L -307.496094 176.921875 L 857.449219 1341.867188 L 871.597656 1341.867188 Z M -307.496094 245.910156 L -307.496094 260.058594 L 774.308594 1341.867188 L 788.460938 1341.867188 Z M -307.496094 328.914062 L -307.496094 343.0625 L 691.304688 1341.867188 L 705.457031 1341.867188 Z M -307.496094 412.050781 L -307.496094 426.203125 L 608.167969 1341.867188 L 622.316406 1341.867188 Z M -307.496094 495.058594 L -307.496094 509.207031 L 525.160156 1341.867188 L 539.3125 1341.867188 Z M -307.496094 578.105469 L -307.496094 592.300781 L 442.023438 1341.820312 L 456.171875 1341.820312 L -307.496094 578.152344 Z M -307.496094 661.15625 L -307.496094 675.308594 L 359.015625 1341.820312 L 373.167969 1341.820312 L -307.496094 661.203125 Z M -307.496094 744.207031 L -307.496094 758.402344 L 275.878906 1341.777344 L 290.074219 1341.777344 L -307.496094 744.296875 Z M -307.496094 827.257812 L -307.496094 841.40625 L 192.875 1341.777344 L 207.023438 1341.777344 L -307.496094 827.34375 Z M -307.496094 910.394531 L -307.496094 924.546875 L 109.734375 1341.777344 L 123.929688 1341.777344 L -307.496094 910.484375 Z M -307.496094 993.402344 L -307.496094 1007.550781 L 26.730469 1341.777344 L 40.878906 1341.777344 L -307.496094 993.488281 Z M -307.496094 1076.539062 L -307.496094 1090.6875 L -56.40625 1341.777344 L -42.257812 1341.777344 L -307.496094 1076.625 Z M -307.496094 1159.542969 L -307.496094 1173.695312 L -139.414062 1341.777344 L -125.261719 1341.777344 L -307.496094 1159.632812 Z M -307.496094 1242.683594 L -307.496094 1256.832031 L -222.550781 1341.777344 L -208.402344 1341.777344 L -307.496094 1242.769531 Z M -307.496094 1325.6875 L -307.496094 1339.839844 L -305.558594 1341.777344 L -291.40625 1341.777344 Z M -307.496094 1325.6875 " fill-opacity="1" fill-rule="nonzero"/></svg>